<svg width="70" height="70" fill="none" xmlns="http://www.w3.org/2000/svg"><path d="M24.492 25.928a.61.61 0 00.355-.787l-.072-.19a.61.61 0 10-1.141.432l.072.19a.61.61 0 00.786.355zm4.248 11.22a.61.61 0 00.354-.786l-3.311-8.748a.61.61 0 10-1.141.432l3.311 8.748a.61.61 0 00.787.355z" fill="#000"/><path d="M36.282 59.95l13.313-5.04a2.647 2.647 0 001.536-3.408L38.462 18.031a4.276 4.276 0 00-5.313-2.55l-.65-1.716.38-.144a.61.61 0 00.355-.786l-1.152-3.043a2.647 2.647 0 00-3.408-1.537l-7.607 2.88a2.647 2.647 0 00-1.536 3.408l1.151 3.043a.61.61 0 00.787.354l.38-.144.65 1.717a4.275 4.275 0 00-2.294 5.428l12.67 33.472a2.647 2.647 0 003.407 1.536zm-15.61-45.84a1.425 1.425 0 01.827-1.835l7.607-2.88a1.425 1.425 0 011.835.828l.936 2.472-10.27 3.887-.935-2.472zm10.686.086l.648 1.712-8.368 3.167-.648-1.712 8.368-3.167zM21.346 24.51a3.054 3.054 0 011.773-3.933l10.27-3.887a3.054 3.054 0 013.932 1.773l3.22 8.508-8.404 3.181a.61.61 0 00-.355.787l.984 2.599a.61.61 0 001.14-.432l-.767-2.028 7.834-2.966 5.336 14.096-7.835 2.966-2.768-7.313a.61.61 0 00-1.14.431l2.983 7.884a.61.61 0 00.787.355l8.405-3.182 3.25 8.585a1.425 1.425 0 01-.828 1.835L35.85 58.81a1.425 1.425 0 01-1.835-.828L21.346 24.51z" fill="#000"/></svg>