<svg width="70" height="70" fill="none" xmlns="http://www.w3.org/2000/svg"><path d="M13.06 41c-.294 0-.54-.1-.74-.3-.2-.2-.3-.447-.3-.74V26.42c0-.307.1-.553.3-.74.2-.2.446-.3.74-.3.306 0 .553.1.74.3.2.187.3.433.3.74v5.74h2.06l5.38-6.44a.89.89 0 01.72-.34c.306-.013.553.087.74.3.186.213.273.44.26.68 0 .227-.094.447-.28.66l-5.06 5.88 5.58 6.48c.186.213.286.44.3.68.026.227-.074.453-.3.68-.187.187-.44.273-.76.26-.32 0-.574-.107-.76-.32L16.24 34H14.1v5.96c0 .293-.1.54-.3.74-.187.2-.434.3-.74.3zm13.743.02c-.293 0-.527-.093-.7-.28a1.09 1.09 0 01-.26-.74v-8.92c0-.307.087-.553.26-.74.173-.187.407-.28.7-.28.307 0 .553.093.74.28.2.187.3.433.3.74v3.34h1.52l3.62-4.04c.173-.187.413-.293.72-.32.32-.027.567.04.74.2.2.187.313.4.34.64.027.227-.047.433-.22.62l-3.62 3.88 3.84 4.12c.173.173.26.38.26.62 0 .227-.107.433-.32.62-.173.16-.42.24-.74.24-.307-.013-.547-.107-.72-.28l-4.12-4.42h-1.3V40c0 .293-.1.54-.3.74-.187.187-.433.28-.74.28zm14.303.06c-.973 0-1.847-.24-2.62-.72a5.365 5.365 0 01-1.84-1.98c-.44-.84-.66-1.787-.66-2.84s.24-2 .72-2.84a5.422 5.422 0 011.98-1.98c.84-.493 1.78-.74 2.82-.74 1.04 0 1.973.247 2.8.74a5.27 5.27 0 011.96 1.98c.493.84.74 1.787.74 2.84V40c0 .293-.1.54-.3.74a.975.975 0 01-.72.28c-.293 0-.54-.093-.74-.28-.187-.2-.28-.447-.28-.74v-.74a5.23 5.23 0 01-1.7 1.34c-.653.32-1.373.48-2.16.48zm.4-1.8c.68 0 1.287-.16 1.82-.48a3.58 3.58 0 001.26-1.34 4 4 0 00.46-1.92c0-.72-.153-1.36-.46-1.92a3.394 3.394 0 00-1.26-1.34c-.533-.333-1.14-.5-1.82-.5a3.43 3.43 0 00-1.82.5c-.533.32-.96.767-1.28 1.34-.307.56-.46 1.2-.46 1.92a4 4 0 00.46 1.92 3.74 3.74 0 001.28 1.34c.547.32 1.153.48 1.82.48zm12.636-9.2c.413 0 .72.22.92.66l4.12 8.94c.12.267.133.507.04.72a.952.952 0 01-.48.46c-.586.267-1.02.133-1.3-.4l-3.26-7.4-3.36 7.4c-.12.253-.3.42-.54.5-.226.067-.48.033-.76-.1-.253-.12-.433-.28-.54-.48-.093-.2-.073-.433.06-.7l4.14-8.94c.2-.44.52-.66.96-.66z" fill="#020202"/></svg>