<svg width="70" height="70" fill="none" xmlns="http://www.w3.org/2000/svg"><path d="M46.036 30.905c-.658 0-1.152.524-1.152 1.152a1.153 1.153 0 101.152-1.152zm-23.758-3.803c-.599 0-1.047.48-1.047 1.033 0 .554.448 1.032 1.047 1.032a1.033 1.033 0 000-2.065z" fill="#020202"/><path d="M54.336 39.264v.003a.957.957 0 01-.132.639c-.157.257-.355.338-.762.503l-.016.007h0l-.004.002c-4.745 2.033-10.77 1.583-15.878.568-4.757-.957-8.445-2.366-8.951-2.56l-.047-.018c-1.456-.559-2.864-.728-4.205-.495-1.342.234-2.603.867-3.769 1.888-1.287 1.118-2.126 2.432-2.535 3.129l-.075.129.077.127c1.58 2.61 3.84 4.007 6.728 4.115h.001c1.19.039 2.273-.149 3.059-.347.393-.1.714-.202.938-.281a6.7 6.7 0 00.361-.14l.01-.005a.898.898 0 011.23.66h0c.532 2.792.18 4.871-.991 6.255-1.333 1.56-3.256 1.633-3.551 1.633a.908.908 0 01-.471-.13c-.152-.09-2.04-1.242-4.108-3.252-2.076-2.019-4.314-4.886-5.174-8.398-1-4.086-.267-8.724 2.861-12.944h0a.897.897 0 011.358-.092.89.89 0 01.081 1.17v.002c-2.281 3.1-2.877 6.132-2.892 8.376l-.005.7.447-.539c1.618-1.949 3.461-3.147 5.383-3.665 1.922-.517 3.939-.36 5.914.43.082.034 3.884 1.521 8.753 2.483l.466.092-.188-.437c-1.14-2.642-1.639-5.273-1.301-7.677.337-2.397 1.508-4.584 3.74-6.347l.392-.31-.483-.128c-2.127-.562-4.415-.698-6.636-.531-1.858.136-4.023.528-5.774 1.213h-.001c-.739.293-1.442.676-2.274 1.22h0l-.002.002c-.03.02-.058.037-.09.056l-.034.02a1.435 1.435 0 00-.141.096.886.886 0 01-1.126-.11h0l-.002-.003a.891.891 0 01.13-1.38s0 0 0 0l.267-.177s0 0 0 0c1.591-1.046 2.97-1.678 5.258-2.18l.328-.072-.163-.293c-.688-1.235-1.88-2.633-4.667-3.265h0l-.007-.001c-.876-.175-.994-1.415-.1-1.734 3.755-1.3 7.552-1.33 10.71.925h0c1.78 1.27 2.865 2.953 3.454 4.1l.055.11.12.022c8.529 1.65 13.113 8.181 14.434 16.836zM32.257 22.096l.078.164.18-.024a24.1 24.1 0 014.531-.163l.53.032-.313-.429c-1.338-1.83-3.733-3.791-7.689-3.468l-.7.057.579.398c1.578 1.086 2.333 2.446 2.804 3.433zm-3.46 26.778l-.023-.303-.292.08c-2.384.647-4.93.658-7.202-.275l-.286.392c1.967 2.346 4.203 3.932 4.992 4.448l.08.052.094-.014c.429-.063 1.264-.272 1.875-.999l.002-.002c.628-.76.866-1.93.76-3.38zm11.77-9.32l.06.111.126.018c3.68.51 7.98.607 11.51-.748l.196-.074-.04-.205c-1.085-5.76-3.78-10.788-9.117-13.273l-.12-.056-.114.067c-2.152 1.283-3.548 2.946-4.122 4.98-1.002 3.529.63 7.333 1.62 9.18z" fill="#020202" stroke="#F5FAFF" stroke-width=".5"/></svg>