<svg width="70" height="70" fill="none" xmlns="http://www.w3.org/2000/svg"><path d="M56.595 33.477l-.059-.327-.131.306a10.86 10.86 0 01-1.242 2.166.811.811 0 01-1.134.17l-.06.08.06-.08a.81.81 0 01-.17-1.134 9.23 9.23 0 001.665-7.1c-.412-2.273-1.741-4.075-3.96-5.394-2.215-1.317-5.317-2.153-9.282-2.506-7.33-.654-15.282.573-18.358 1.13-7.222 1.308-12.033 8.246-10.726 15.467 1.308 7.222 8.246 12.033 15.468 10.725 3.42-.619 5.897-2.221 8.5-3.906l.007-.004c3.008-1.946 6.105-3.95 10.94-4.825.282-.05.563-.115.838-.192l-.027-.096.027.096a.811.811 0 01.437 1.562c-.323.09-.655.166-.986.226-4.517.818-7.487 2.74-10.345 4.589l-.003.002c-2.765 1.789-5.36 3.467-9.1 4.144-5.545 1.004-10.942-1.209-14.266-5.304l-.175.087c1.673 6.752 8.349 11.144 15.287 9.888 3.421-.62 5.898-2.222 8.501-3.906l.006-.004c3.009-1.947 6.106-3.95 10.94-4.825 4.99-.903 8.315-5.697 7.411-10.687l-.063-.348zM42.426 18.042c3.91.349 7.097 1.177 9.476 2.458 2.94 1.582 4.69 3.86 5.218 6.77l1.134 6.266c1.063 5.87-2.848 11.51-8.718 12.572-4.516.818-7.486 2.74-10.344 4.589l-.003.002c-2.765 1.789-5.361 3.467-9.1 4.144-8.101 1.467-15.885-3.93-17.352-12.032l-1.135-6.267c-1.466-8.1 3.931-15.885 12.032-17.352 3.146-.57 11.27-1.82 18.792-1.15z" fill="#020202" stroke="#F5FAFF" stroke-width=".2"/><path d="M52.123 36.446h0a.811.811 0 01.951 1.314h0a.808.808 0 01-1.13-.166.811.811 0 01.162-1.135h0l.017-.013zm-30.052-5.431c-.4-2.209 1.257-4.382 3.718-4.828 2.461-.445 4.775 1.01 5.175 3.218.4 2.21-1.257 4.383-3.718 4.828-2.461.446-4.775-1.008-5.175-3.217zm1.596-.288c.245 1.353 1.734 2.192 3.29 1.91 1.556-.281 2.656-1.59 2.41-2.943-.244-1.353-1.733-2.192-3.289-1.91-1.556.281-2.656 1.59-2.41 2.943z" fill="#020202" stroke="#F5FAFF" stroke-width=".2"/></svg>