<svg width="70" height="70" fill="none" xmlns="http://www.w3.org/2000/svg"><path d="M35.268 34c-1.248 0-2.366-.286-3.354-.858a6.724 6.724 0 01-2.366-2.366c-.572-.988-.858-2.106-.858-3.354 0-.243.07-.433.208-.572a.778.778 0 01.572-.234c.225 0 .416.078.572.234.156.139.234.33.234.572 0 .936.217 1.785.65 2.548a5.228 5.228 0 001.794 1.794c.763.433 1.612.65 2.548.65.953 0 1.803-.217 2.548-.65a5.01 5.01 0 001.768-1.794c.45-.763.676-1.612.676-2.548 0-.953-.225-1.803-.676-2.548a4.749 4.749 0 00-1.768-1.794c-.745-.45-1.595-.676-2.548-.676h-4.732a.83.83 0 01-.572-.208.83.83 0 01-.208-.572v-7.176c0-.225.07-.407.208-.546a.778.778 0 01.572-.234H40c.225 0 .416.078.572.234.156.139.234.32.234.546a.778.778 0 01-.234.572.778.778 0 01-.572.234h-8.684v5.59h3.952c1.248 0 2.366.286 3.354.858a6.26 6.26 0 012.34 2.366c.59.988.884 2.106.884 3.354 0 1.248-.295 2.366-.884 3.354a6.515 6.515 0 01-2.34 2.366c-.988.572-2.106.858-3.354.858zm18.677 4h-30.52c-.323 0-.585.324-.585.724 0 .4.262.724.585.724h30.403v2.783H16.172v-2.783h4.91c.323 0 .586-.324.586-.724 0-.4-.263-.724-.586-.724h-5.027c-.582 0-1.055.585-1.055 1.303v3.073c0 .718.473 1.303 1.055 1.303h.826v10.873c0 .719.473 1.303 1.055 1.303h2.011c.582 0 1.055-.584 1.055-1.303V43.679h27.745v11.018c0 .718.473 1.303 1.054 1.303h2.012c.581 0 1.055-.585 1.055-1.303V43.679h1.077c.582 0 1.055-.585 1.055-1.303v-3.073c0-.718-.473-1.303-1.055-1.303zM19.83 54.407h-1.777V43.68h1.777v10.728zm31.866.145h-1.777V43.679h1.777v10.873z" fill="#020202"/></svg>