<svg width="70" height="70" fill="none" xmlns="http://www.w3.org/2000/svg"><path d="M17.171 24.217l-.005-.005a3.837 3.837 0 01-1.203-2.701l1.208 2.706zm0 0l.006.005m-.006-.005l.006.005m0 0c.142.119.426.262.803.423.388.167.907.365 1.544.588 1.275.447 3.036.999 5.206 1.604l.17.048.102-.146c.341-.49.73-.951 1.16-1.377l.17-.167-.159-.177c-2.927-3.28-5.13-5.807-6.143-7.361l-.074-.114h-.136a3.84 3.84 0 00-2.797 1.207h0m.154 5.472l-.154-5.473m0 0a3.841 3.841 0 00-1.06 2.762l1.06-2.761zm15.524-9.085h0a5.502 5.502 0 014.026 1.33 5.498 5.498 0 011.905 3.787c.033.46-.077 1.384-1.365 4.65-.465 1.18-.96 2.35-1.331 3.207l-.111.257.266.082a9.8 9.8 0 015.995 5.18l.226-.108-.226.107c1.293 2.729 3.528 9.813 4.87 16.48.747 3.718 1.123 6.801 1.12 9.167 0 1.599-.18 2.849-.528 3.777-.348.923-.858 1.516-1.522 1.83-.664.315-1.445.335-2.38.019-.94-.318-2.02-.971-3.258-1.982l-.158.194.158-.194c-1.832-1.497-3.98-3.74-6.385-6.674-4.311-5.26-8.378-11.475-9.671-14.203l-.226.107.226-.108a9.8 9.8 0 01-.213-7.919l.105-.258-.268-.076c-.9-.256-2.118-.613-3.326-1l-.077.237.076-.238c-3.343-1.07-4.127-1.57-4.462-1.888a5.498 5.498 0 01-1.725-3.872h0a5.503 5.503 0 011.52-3.959h0a5.5 5.5 0 013.163-1.664l.259-.04-.052-.256A5.55 5.55 0 0122.24 9.54a5.551 5.551 0 016.656 1.49l.166.202.195-.175a5.5 5.5 0 013.291-1.394zM29.95 23.042l.201-.067-.033-.209c-.276-1.74-.62-3.87-.972-5.729a51.96 51.96 0 00-.53-2.508c-.172-.708-.344-1.289-.51-1.64a3.869 3.869 0 00-5.148-1.834 3.869 3.869 0 00-1.84 5.146c.161.34.486.82.909 1.38a49.22 49.22 0 001.56 1.935c1.195 1.42 2.636 3.043 3.923 4.483l.14.157.18-.112a9.908 9.908 0 012.12-1.002zm7.192 28.53l-.301.142.22.25c2.34 2.635 4.125 4.206 5.426 5.077.65.435 1.187.7 1.62.834.423.131.784.147 1.049.021.297-.14.536-.488.712-.995.18-.52.314-1.256.362-2.254.096-1.999-.146-5.088-1.07-9.681-1.312-6.525-3.478-13.428-4.741-16.093-1.924-4.06-6.792-5.798-10.853-3.874-4.06 1.924-5.798 6.792-3.873 10.853 1.262 2.665 5.233 8.712 9.452 13.86.15.182.297.36.443.534l.124.15.175-.084 3.58-1.697a.838.838 0 11.718 1.514l-3.043 1.442zm-.334-36.663v-.015a3.831 3.831 0 00-1.329-2.631 3.84 3.84 0 00-2.808-.928 3.84 3.84 0 00-2.705 1.4l-.086.106.041.129c.585 1.84 1.182 5.324 1.832 9.414l.037.234.236-.025a9.77 9.77 0 011.776-.024l.177.014.072-.162c.905-2.063 1.593-3.776 2.054-5.047.23-.635.406-1.163.523-1.57.114-.395.182-.708.18-.895zm-5.175 17.138a.838.838 0 11.718 1.514l-3.478 1.648a.838.838 0 01-.717-1.514l3.477-1.648zm3.042 7.348l5.564-2.637a.838.838 0 11.718 1.514l-5.565 2.636a.838.838 0 11-.717-1.513z" fill="#000" stroke="#F5FAFF" stroke-width=".5"/></svg>