<svg width="29" height="29" fill="none" xmlns="http://www.w3.org/2000/svg"><path d="M26.08 17.065a1.113 1.113 0 10-2.065.834l1.311 3.243-3.894-1.716a1.114 1.114 0 00-.886-.005c-1.33.567-2.756.855-4.237.855-5.96 0-9.963-4.666-9.963-9.025 0-4.976 4.47-9.025 9.963-9.025 5.494 0 9.964 4.049 9.964 9.025 0 .389-.037.854-.1 1.276a1.113 1.113 0 002.203.328c.08-.534.123-1.103.123-1.604 0-3.024-1.28-5.861-3.606-7.99C22.595 1.158 19.547 0 16.31 0c-3.238 0-6.286 1.158-8.584 3.261-2.078 1.902-3.32 4.37-3.562 7.032C1.55 12.024 0 14.799 0 17.785c0 1.867.588 3.637 1.707 5.161L.081 26.97a1.113 1.113 0 001.481 1.435l4.689-2.066c1.18.439 2.426.661 3.713.661.027 0 .055-.002.082-.004a10.537 10.537 0 005.238-1.42 9.584 9.584 0 003.368-3.28 12.81 12.81 0 002.312-.642l5.973 2.633a1.112 1.112 0 001.481-1.436l-2.339-5.785zM9.963 24.77l-.045.002a8.348 8.348 0 01-3.253-.665 1.113 1.113 0 00-.886.005l-2.607 1.15.841-2.081a1.113 1.113 0 00-.185-1.14c-1.048-1.23-1.602-2.701-1.602-4.256 0-1.779.748-3.464 2.057-4.742.408 2.222 1.558 4.348 3.293 6.018 2.16 2.078 5.016 3.282 8.1 3.427-1.448 1.425-3.52 2.282-5.713 2.282z" fill="#020202"/><path d="M16.253 12.413a1.113 1.113 0 100-2.227 1.113 1.113 0 000 2.227zm4.454 0a1.113 1.113 0 100-2.227 1.113 1.113 0 000 2.227zm-8.907 0a1.113 1.113 0 100-2.227 1.113 1.113 0 000 2.227z" fill="#020202"/></svg>