<svg width="66" height="66" fill="none" xmlns="http://www.w3.org/2000/svg"><path d="M33 65.75C14.941 65.75.25 51.059.25 33 .25 14.941 14.941.25 33 .25 51.059.25 65.75 14.941 65.75 33c0 18.059-14.691 32.75-32.75 32.75zm0-61.875C16.94 3.875 3.875 16.939 3.875 33c0 16.06 13.064 29.125 29.125 29.125 16.06 0 29.125-13.065 29.125-29.125C62.125 16.94 49.06 3.875 33 3.875z" fill="#64D370" stroke="#E5E5E5" stroke-width=".5"/><path d="M46.158 50.093h0L31.72 35.655a1.813 1.813 0 01-.531-1.28v-19.25a1.813 1.813 0 013.624 0v18.497l.074.073L48.719 47.53a1.813 1.813 0 010 2.564h0a1.797 1.797 0 01-1.28.532c-.465 0-.928-.177-1.28-.532z" fill="#64D370" stroke="#E5E5E5" stroke-width=".5"/></svg>