<svg width="68" height="68" fill="none" xmlns="http://www.w3.org/2000/svg"><path d="M62.527 14.89h3.063c.726 0 1.314-.6 1.314-1.341 0-.74-.588-1.341-1.314-1.341h-5.74c-.727 0-1.315.6-1.315 1.34v5.856c0 .74.588 1.34 1.314 1.34.726 0 1.315-.6 1.315-1.34V17.74c6.96 12.21 5.11 28.108-4.88 38.298-8.81 8.986-21.974 11.728-33.534 6.984a1.306 1.306 0 00-1.71.743 1.35 1.35 0 00.729 1.745A33.098 33.098 0 0034.349 68c8.758 0 17.35-3.493 23.794-10.066 5.754-5.87 9.227-13.658 9.779-21.93.498-7.481-1.41-14.899-5.395-21.114zM8.326 47.303c-.726 0-1.315.6-1.315 1.341v1.909c-7.164-12.249-5.367-28.325 4.705-38.598 8.87-9.049 22.105-11.76 33.714-6.91a1.306 1.306 0 001.715-.732 1.35 1.35 0 00-.718-1.75A33.035 33.035 0 0027.285.622C20.667 1.916 14.64 5.18 9.857 10.058 4.102 15.928.629 23.716.077 31.988-.425 39.54 1.526 47.029 5.59 53.28H2.465c-.726 0-1.315.6-1.315 1.341 0 .74.589 1.341 1.315 1.341h5.86c.727 0 1.315-.6 1.315-1.34v-5.979c0-.74-.588-1.34-1.314-1.34zm22.55-18.394a.785.785 0 00-.39.454.804.804 0 00.04.603l4.344 8.96c.091.187.251.33.446.397a.76.76 0 00.59-.04.785.785 0 00.39-.455.804.804 0 00-.039-.602l-4.344-8.96a.778.778 0 00-.446-.397.76.76 0 00-.59.04zm9.079 7.451l-4.344-8.96a.779.779 0 00-.446-.397.76.76 0 00-.59.04.785.785 0 00-.39.455.804.804 0 00.039.602l4.344 8.96c.091.188.252.33.446.398a.76.76 0 00.59-.04.785.785 0 00.39-.455.804.804 0 00-.039-.603z" fill="#64D370"/><path d="M51.632 17.722a.53.53 0 00-.128-.264.748.748 0 00-.096-.115.76.76 0 00-.13-.088.723.723 0 00-.094-.064l-.062-.021c-.463-.113-10.342-2.841-18.82-.354a42.494 42.494 0 00-1.667-5.087l-.014-.028-.025-.052a.808.808 0 00-.061-.127.757.757 0 00-.161-.142l-.014-.029a.755.755 0 00-.191-.085.763.763 0 00-.19-.022l-.027.014a.78.78 0 00-.19.037l-.189.095a44.042 44.042 0 00-6.236 4.572c-3.042 2.65-7.025 6.872-8.7 11.937-2.88 8.69 4.32 14.84 4.738 15.181l.016.034a.75.75 0 00.129.075l.071.029.124.031.079.008.037-.02a15.962 15.962 0 006.369-1.663 13.026 13.026 0 003.908-2.975l1.898 3.914a8.095 8.095 0 003.4 3.666l1.515.81a6.614 6.614 0 012.711 2.945l3.236 6.672c.09.188.25.331.445.398a.76.76 0 00.591-.04.785.785 0 00.39-.454.804.804 0 00-.04-.603l-3.235-6.673a8.095 8.095 0 00-3.4-3.666l-1.505-.79a6.613 6.613 0 01-2.721-2.965l-5.18-10.68a.779.779 0 00-.445-.398.76.76 0 00-.59.04.785.785 0 00-.39.455.804.804 0 00.039.602l2.533 5.225c-2.583 3.264-6.492 4.209-8.403 4.48L29.962 14.4a44.078 44.078 0 012.174 10.418.798.798 0 00.267.54.765.765 0 001.091-.082.799.799 0 00.186-.574 41.493 41.493 0 00-.976-6.357c6.681-1.98 14.542-.47 17.119.133-.967 2.125-3.759 7.817-8.092 12.052l-2.422-4.994a.78.78 0 00-.445-.397.76.76 0 00-.591.04.784.784 0 00-.39.454.803.803 0 00.04.603l5.178 10.68a6.787 6.787 0 01.66 4.005l-.299 1.7a8.308 8.308 0 00.793 4.982l3.236 6.672c.09.188.251.33.445.398a.76.76 0 00.591-.04.784.784 0 00.39-.455.804.804 0 00-.04-.602l-3.235-6.673a6.787 6.787 0 01-.65-3.986l.298-1.7a8.308 8.308 0 00-.802-5l-2.042-4.211c5.857-5.508 9.02-13.436 9.151-13.772l.024-.059a.754.754 0 00.007-.115.783.783 0 00.01-.158.77.77 0 00-.006-.179zm-23.144-3.824l-5.842 17.62-3.971-8.191c3.04-4.41 7.384-7.758 9.813-9.429zm-8.996 27.146c-1.757-1.773-5.48-6.462-3.418-12.685a18.656 18.656 0 011.611-3.512l4.263 8.79-2.456 7.407z" fill="#64D370"/></svg>