<svg width="89" height="61" fill="none" xmlns="http://www.w3.org/2000/svg"><path d="M63.244 25.036v.088h11.608c3.603 0 6.917 1.78 8.868 4.762l.07-.047-.07.047 4.454 6.802c.138.212.213.46.213.715V52.92c0 .722-.585 1.307-1.309 1.307h-4.777l-.015.068c-.786 3.372-3.816 5.896-7.43 5.896s-6.644-2.524-7.43-5.896l-.016-.068H40.396l-.016.068c-.785 3.372-3.814 5.896-7.43 5.896-3.614 0-6.644-2.524-7.43-5.896l-.015-.068H13.046a1.308 1.308 0 01-1.309-1.307v-1.376c0-2.818 1.706-5.24 4.138-6.31l.053-.024v-6.32H1.872a1.307 1.307 0 110-2.613h14.056v-2.964h-5.676a1.306 1.306 0 110-2.613h5.676v-2.964H1.872a1.307 1.307 0 110-2.613h11.824l-.241-.161c-3.657-2.437-6.071-6.59-6.071-11.297C7.384 6.18 13.486.088 20.987.088c6.625 0 12.152 4.755 13.354 11.023l.014.071h21.638c3.999 0 7.25 3.246 7.25 7.237v6.617zm-44.61 13.855h-.089v5.754h.088l.02-.001h41.973V18.419a4.635 4.635 0 00-4.632-4.625H34.582l-.002.087c-.073 4.618-2.46 8.682-6.06 11.082l-.242.161h8.514a1.308 1.308 0 110 2.613H18.545v2.964h9.867a1.307 1.307 0 110 2.613h-9.867v2.964h2.882a1.307 1.307 0 110 2.613h-2.794zm41.904 12.724h.088v-4.359h-22.22l.138.148a7.582 7.582 0 011.962 4.135l.01.076h20.023zm-33.18-4.211l.137-.148h-8.844a4.298 4.298 0 00-4.296 4.27v.089h11.03l.01-.076a7.58 7.58 0 011.962-4.135zm58.323 4.21h.088V37.792l-.014-.022-4.226-6.455c-1.466-2.24-3.963-3.577-6.677-3.577H63.244v23.877h4.046l.01-.076c.51-3.713 3.7-6.586 7.556-6.586s7.047 2.873 7.555 6.586l.01.076h3.26zM20.987 2.7c-6.057 0-10.986 4.92-10.986 10.966 0 6.047 4.929 10.966 10.986 10.966 6.058 0 10.986-4.92 10.986-10.966C31.973 7.62 27.045 2.7 20.987 2.7zm6.947 49.873a5.017 5.017 0 0010.033 0c0-2.76-2.25-5.008-5.016-5.008-2.765 0-5.017 2.247-5.017 5.008zm41.906 0a5.017 5.017 0 0010.033 0c0-2.76-2.251-5.008-5.017-5.008a5.018 5.018 0 00-5.016 5.008z" fill="#64D370" stroke="#E5E5E5" stroke-width=".176"/><path d="M20.119 13.24l-.017.023-2.851 3.904h0a1.303 1.303 0 00.286 1.823h0a1.306 1.306 0 001.829-.285h0l3.12-4.27-2.367-1.195zm0 0v-.029m0 .03v-.03m0 0V7.566c0-.722.585-1.305 1.308-1.305.724 0 1.31.583 1.31 1.305v6.1m-2.618-.455l2.617.455m0 0c0 .277-.088.546-.25.77l.25-.77zM83.145 38.19h0a2.301 2.301 0 01-.007 2.326 2.317 2.317 0 01-2.023 1.164h-9.401c-.724 0-1.31-.585-1.31-1.307v-9.76c0-.721.586-1.306 1.31-1.306h2.671a6.35 6.35 0 015.498 3.184l3.262 5.698zm-10.122.79v.087h7.609l-.075-.131-2.947-5.148a3.72 3.72 0 00-3.225-1.868h-1.362v7.059z" fill="#64D370" stroke="#E5E5E5" stroke-width=".176"/></svg>