<svg width="65" height="66" fill="none" xmlns="http://www.w3.org/2000/svg"><path d="M.721 55.044c0 5.518 4.544 10.006 10.127 10.006h33.337c6.08 0 11.027-4.887 11.027-10.894v0a10.832 10.832 0 00-4.145-8.503c5.367-2.037 9.595-6.406 11.55-12.068a1.116 1.116 0 00-1.67-1.297c-1.866 1.229-3.933 1.802-6.509 1.802-6.88 0-12.48-5.735-12.48-12.787 0-5.316 3.432-10.332 8.344-12.197a1.116 1.116 0 00-.055-2.108c-1.964-.63-4.223-.715-6.169-.715-10.97 0-19.894 9.115-19.894 20.317M.721 55.044H.77.721s0 0 0 0zm0 0a9.875 9.875 0 012.875-6.977 10.115 10.115 0 015.534-2.875 11.46 11.46 0 01-.3-2.592c0-6.498 5.352-11.783 11.929-11.783 1.367 0 2.724.235 4.011.695a20.727 20.727 0 01-.586-4.912m0 0h.05-.05s0 0 0 0zm-19 23.037h0a7.915 7.915 0 015.429-2.352h0a1.115 1.115 0 001.017-1.495h0a9.393 9.393 0 01-.567-3.19c0-5.265 4.35-9.55 9.696-9.55 4.029 0 7.679 2.507 9.082 6.237a1.12 1.12 0 001.065.724c.153-.003.303-.037.443-.1h0a7.022 7.022 0 012.925-.639c3.32 0 6.203 2.323 6.855 5.522a1.116 1.116 0 001.31.873l-.01-.05.01.05a8.996 8.996 0 011.746-.173c4.85 0 8.794 3.887 8.794 8.662s-3.944 8.66-8.794 8.66H10.848c-4.353 0-7.894-3.487-7.894-7.772a7.654 7.654 0 012.23-5.407zm41.32-41.046c-4.107 2.801-6.78 7.64-6.78 12.712 0 8.282 6.6 15.02 14.715 15.02 1.802 0 3.403-.243 4.879-.754-2.294 4.26-6.174 7.362-10.823 8.56-1.72-.722-3.596-1-5.452-.809-1.224-3.696-4.755-6.28-8.77-6.28a9.164 9.164 0 00-2.788.43 11.86 11.86 0 00-3.96-4.554 18.377 18.377 0 01-1.108-6.316v0c0-9.972 7.924-18.083 17.661-18.083.776 0 1.602.013 2.425.074z" fill="#64D370" stroke="#64D370" stroke-width=".1"/><path d="M52.677 20.193l1.813.604-1.323 1.983s0 0 0 0a1.117 1.117 0 101.858 1.24s0 0 0 0l1.205-1.807 1.204 1.806h0a1.117 1.117 0 001.858-1.238h0l-1.322-1.984 1.813-.604h0a1.116 1.116 0 00-.706-2.12v.001l-1.73.577V17a1.116 1.116 0 10-2.234 0v1.65l-1.73-.576s0 0 0 0a1.115 1.115 0 00-1.089 1.905c.113.096.242.168.383.214 0 0 0 0 0 0zM8.102 32.38l-1.323-1.983 1.813-.604h0a1.117 1.117 0 00-.705-2.12h0l-1.731.578V26.6a1.117 1.117 0 10-2.233 0v1.65l-1.73-.576s0 0 0 0a1.118 1.118 0 10-.707 2.119s0 0 0 0l1.813.604-1.322 1.983s0 0 0 0a1.116 1.116 0 101.858 1.24v-.001l1.204-1.806 1.204 1.806s0 0 0 0a1.115 1.115 0 002.027-.836 1.116 1.116 0 00-.168-.403s0 0 0 0zM7.886 7.392l1.813.605L8.377 9.98s0 0 0 0a1.117 1.117 0 001.858 1.239l-.04-.028.04.027 1.204-1.806 1.205 1.806h0a1.117 1.117 0 001.858-1.238h0l-1.323-1.984 1.813-.604h.001a1.116 1.116 0 00-.706-2.12v.001l-1.731.577V4.2a1.117 1.117 0 10-2.233 0v1.65l-1.73-.576h0-.001a1.117 1.117 0 00-.706 2.118h0zm53.677.058a1.117 1.117 0 100-2.233 1.117 1.117 0 000 2.233zm-43.727 16a1.117 1.117 0 100-2.233 1.117 1.117 0 000 2.233zM33.833 3.183a1.117 1.117 0 100-2.233 1.117 1.117 0 000 2.233zm29.864 41.6a1.117 1.117 0 100-2.233 1.117 1.117 0 000 2.233z" fill="#64D370" stroke="#64D370" stroke-width=".1"/></svg>