<svg width="67" height="67" fill="none" xmlns="http://www.w3.org/2000/svg"><path d="M60.015 45.423l-15.011 8.893-5.718-3.613h7.189a4.149 4.149 0 100-8.298H34.126c-1.42-.008-2.83.248-4.156.755l-9.603 4.36v-.966a1.131 1.131 0 00-1.131-1.131h-8.298a1.131 1.131 0 00-1.131 1.131v18.858a1.132 1.132 0 001.131 1.132h8.298a1.131 1.131 0 001.131-1.132v-1.131H43.82a7.03 7.03 0 004.134-1.335L63.99 51.457a3.643 3.643 0 00-3.975-6.034zM18.105 64.28H12.07V47.686h6.034V64.28zm44.573-14.627l-16.045 11.46a4.79 4.79 0 01-2.814.905H20.367V50l10.47-4.73a9.151 9.151 0 013.29-.603h12.348a1.886 1.886 0 110 3.772H35.379a1.131 1.131 0 00-.604 2.09l9.603 6.034a1.131 1.131 0 001.184 0l15.615-9.27a1.38 1.38 0 011.508 2.308l-.007.052zM65.25 36.37h-2.64A29.08 29.08 0 0037.226 8.324a4.903 4.903 0 10-7.31 0A29.072 29.072 0 004.527 36.37H1.132a1.132 1.132 0 000 2.263H65.25a1.131 1.131 0 100-2.263zM33.568 2.425a2.64 2.64 0 110 5.28 2.64 2.64 0 010-5.28zm0 7.921A26.801 26.801 0 0160.347 36.37H6.789a26.801 26.801 0 0126.779-26.024z" fill="#64D370"/><path d="M27.487 15.71a22.222 22.222 0 00-14.182 12.197 1.133 1.133 0 00.984 1.675 1.131 1.131 0 001.075-.755 19.968 19.968 0 0112.741-10.938 1.132 1.132 0 10-.618-2.18z" fill="#64D370"/></svg>