<svg width="34" height="51" fill="none" xmlns="http://www.w3.org/2000/svg"><path fill-rule="evenodd" clip-rule="evenodd" d="M14.887 1.987A5.25 5.25 0 0118.029.655a5.252 5.252 0 013.845 1.27 5.248 5.248 0 011.818 3.617c.029.395-.057 1.267-1.347 4.54a108.439 108.439 0 01-1.33 3.2l-.22.512.533.164a9.55 9.55 0 015.842 5.048c1.28 2.702 3.51 9.764 4.85 16.421.746 3.711 1.119 6.776 1.117 9.118-.002 1.584-.18 2.8-.514 3.69-.33.878-.803 1.412-1.394 1.692-.591.28-1.303.308-2.193.007-.9-.304-1.953-.937-3.18-1.938-1.814-1.482-3.95-3.71-6.35-6.639-4.305-5.252-8.358-11.45-9.639-14.152a9.55 9.55 0 01-.207-7.718l.21-.517-.536-.152a109.27 109.27 0 01-3.318-.998c-3.35-1.073-4.08-1.56-4.367-1.832a5.248 5.248 0 01-1.647-3.697 5.252 5.252 0 011.45-3.78 5.249 5.249 0 013.021-1.59l.517-.08-.103-.512A5.3 5.3 0 017.81.51a5.301 5.301 0 016.356 1.423l.332.404.389-.35zm1.007 11.9l-.402.135a9.636 9.636 0 00-2.067.976l-.357.225-.281-.315c-1.287-1.44-2.731-3.065-3.928-4.489A49.416 49.416 0 017.29 8.473c-.422-.56-.762-1.056-.935-1.422a4.119 4.119 0 011.959-5.48 4.119 4.119 0 015.481 1.954c.178.376.355.98.527 1.688.176.72.356 1.589.532 2.52.354 1.863.698 3.997.974 5.736l.066.419zm-13.425 1.26l-.011-.01a4.087 4.087 0 01-1.281-2.876 4.092 4.092 0 011.128-2.94 4.09 4.09 0 012.979-1.284h.27l.149.226c1.001 1.535 3.188 4.046 6.12 7.332l.317.354-.338.334c-.42.415-.798.865-1.13 1.342l-.204.292-.342-.096c-2.173-.606-3.94-1.16-5.22-1.609a25.77 25.77 0 01-1.56-.593c-.372-.16-.691-.316-.866-.462l-.011-.01zM22.338 42.87l-.443-.498 3.645-1.727a.588.588 0 00-.503-1.062l-3.93 1.862-.249-.297a80.133 80.133 0 01-.443-.537c-4.225-5.154-8.21-11.22-9.486-13.91-1.983-4.186-.192-9.203 3.993-11.187 4.185-1.983 9.202-.192 11.186 3.994 1.275 2.69 3.446 9.616 4.76 16.15.926 4.603 1.172 7.715 1.074 9.742-.049 1.012-.184 1.774-.375 2.324-.183.526-.451.955-.841 1.14-.35.165-.785.13-1.23-.008-.464-.143-1.023-.423-1.685-.866-1.326-.887-3.127-2.476-5.473-5.12zm.183-37.238v.015c.003.23-.078.577-.19.967-.12.415-.296.949-.528 1.587-.464 1.278-1.154 2.995-2.06 5.061l-.143.326-.354-.028a9.513 9.513 0 00-1.731.023l-.472.05-.074-.469c-.651-4.097-1.245-7.56-1.823-9.377l-.083-.258.172-.21a4.09 4.09 0 012.88-1.492 4.091 4.091 0 012.99.988 4.082 4.082 0 011.415 2.802v.015z" fill="#020202"/><path d="M17.203 23.015a.588.588 0 11.503 1.062l-3.477 1.648a.588.588 0 01-.503-1.062l3.477-1.648zm3.042 7.348l5.564-2.637a.588.588 0 11.503 1.062l-5.564 2.637a.588.588 0 01-.503-1.062z" fill="#020202"/></svg>