<svg width="48" height="63" fill="none" xmlns="http://www.w3.org/2000/svg"><path d="M26.736 7.805a5.752 5.752 0 00-4.207-1.39 5.75 5.75 0 00-3.44 1.457 5.801 5.801 0 00-6.957-1.557 5.8 5.8 0 00-3.199 6.37 5.75 5.75 0 00-3.307 1.74 5.752 5.752 0 00-1.588 4.136 5.748 5.748 0 001.803 4.048c.382.361 1.222.876 4.558 1.944 1.213.389 2.433.746 3.334 1.003a10.05 10.05 0 00.219 8.12c1.305 2.755 5.386 8.988 9.703 14.256 2.41 2.94 4.57 5.197 6.42 6.708 2.5 2.041 4.431 2.694 5.904 1.996 1.474-.698 2.191-2.606 2.194-5.833.002-2.389-.377-5.49-1.127-9.217-1.343-6.677-3.583-13.782-4.888-16.537a10.05 10.05 0 00-6.147-5.311c.372-.86.868-2.032 1.335-3.216 1.285-3.258 1.42-4.234 1.381-4.759a5.748 5.748 0 00-1.99-3.958zm-13.672.476a3.619 3.619 0 014.815 1.716c.616 1.3 1.44 6.329 1.991 9.808a10.137 10.137 0 00-2.174 1.027c-2.575-2.88-5.756-6.479-6.353-7.738a3.619 3.619 0 011.72-4.813zM7.338 21.03a3.587 3.587 0 01-1.125-2.526 3.591 3.591 0 01.991-2.583 3.59 3.59 0 012.616-1.128c1.027 1.574 3.245 4.118 6.167 7.391-.442.436-.84.91-1.19 1.412-4.332-1.209-7.022-2.2-7.46-2.566zm22.854 4.95c1.25 2.639 3.411 9.52 4.722 16.035 1.844 9.166.951 12.268.134 12.655-.725.344-3.137-.618-7.8-5.873l3.043-1.442a1.088 1.088 0 10-.932-1.966l-3.58 1.697a82.808 82.808 0 01-.441-.533c-4.213-5.14-8.17-11.17-9.42-13.808-1.866-3.936-.181-8.655 3.754-10.52 3.936-1.865 8.655-.18 10.52 3.755zm-3.635-14.068c.007.58-.93 3.29-2.736 7.408a10.014 10.014 0 00-1.822.024c-.648-4.082-1.248-7.588-1.84-9.45a3.59 3.59 0 012.53-1.31 3.591 3.591 0 012.626.868 3.58 3.58 0 011.242 2.46z" fill="#000"/><path fill-rule="evenodd" clip-rule="evenodd" d="M22.566 6.913a5.25 5.25 0 00-3.143 1.331l-.39.35-.33-.405a5.301 5.301 0 00-6.356-1.422 5.3 5.3 0 00-2.924 5.82l.103.512-.517.08a5.25 5.25 0 00-3.02 1.59 5.253 5.253 0 00-1.451 3.78 5.248 5.248 0 001.647 3.697c.287.272 1.017.758 4.367 1.831 1.205.386 2.42.742 3.318.998l.537.153-.21.517a9.55 9.55 0 00.207 7.717c1.28 2.703 5.334 8.901 9.638 14.153 2.4 2.928 4.536 5.157 6.35 6.638 1.227 1.002 2.28 1.635 3.18 1.939.89.3 1.602.272 2.193-.008s1.064-.813 1.395-1.692c.334-.889.512-2.105.513-3.689h.5c-.003 3.227-.72 5.135-2.194 5.833-1.473.698-3.404.045-5.903-1.996-1.85-1.51-4.01-3.768-6.42-6.708-4.318-5.268-8.4-11.5-9.704-14.256a10.042 10.042 0 01-.219-8.12l-.483-.139c-.83-.24-1.844-.541-2.85-.864-3.337-1.068-4.177-1.582-4.559-1.944a5.748 5.748 0 01-1.803-4.048 5.752 5.752 0 011.588-4.137 5.759 5.759 0 013.307-1.74 5.8 5.8 0 013.2-6.37 5.801 5.801 0 016.956 1.558 5.738 5.738 0 013.44-1.458 5.752 5.752 0 014.207 1.39 5.748 5.748 0 011.991 3.959c.038.525-.096 1.5-1.381 4.76a105.661 105.661 0 01-1.335 3.215 10.042 10.042 0 016.147 5.311c1.305 2.755 3.545 9.86 4.888 16.537.75 3.727 1.13 6.828 1.127 9.217h-.5c.002-2.342-.37-5.407-1.117-9.118-1.339-6.657-3.57-13.72-4.85-16.422a9.55 9.55 0 00-5.842-5.048l-.534-.164.222-.512c.371-.857.865-2.023 1.329-3.2 1.29-3.272 1.376-4.145 1.347-4.54m-7.798 8.346l-.401.134a9.648 9.648 0 00-2.068.977l-.357.224-.281-.315c-1.287-1.44-2.73-3.065-3.928-4.488a49.43 49.43 0 01-1.569-1.946c-.422-.56-.761-1.057-.935-1.423a4.119 4.119 0 011.959-5.48 4.119 4.119 0 015.481 1.955c.178.376.355.979.527 1.687.176.72.356 1.59.532 2.52.354 1.863.698 3.997.974 5.737l.066.418zm-13.092.885l-.321.383c.174.146.493.303.865.462.395.17.92.37 1.56.594 1.281.449 3.047 1.002 5.22 1.609l.342.095.203-.291a9.53 9.53 0 011.131-1.342l.339-.334-.317-.355c-2.933-3.286-5.12-5.797-6.121-7.331l-.148-.227H9.82a4.09 4.09 0 00-2.978 1.284 4.091 4.091 0 00-1.13 2.94 4.087 4.087 0 001.282 2.876l.344-.363zm19.094 27.6l3.644-1.727a.588.588 0 00-.503-1.062l-3.93 1.863-.248-.298a83.344 83.344 0 01-.444-.536c-4.225-5.155-8.21-11.22-9.485-13.911-1.984-4.185-.193-9.203 3.992-11.186 4.185-1.984 9.202-.192 11.186 3.993 1.275 2.691 3.446 9.616 4.76 16.15.926 4.604 1.172 7.716 1.074 9.743-.048 1.012-.184 1.774-.375 2.324-.183.526-.45.954-.841 1.14-.35.165-.785.13-1.23-.009-.463-.143-1.023-.422-1.685-.865-1.326-.888-3.127-2.476-5.473-5.12l-.442-.498zm3.859-1.275a1.088 1.088 0 10-.932-1.966l-3.58 1.697a82.808 82.808 0 01-.441-.533c-4.213-5.14-8.17-11.17-9.42-13.808-1.866-3.936-.181-8.655 3.754-10.52 3.936-1.865 8.655-.18 10.52 3.755 1.25 2.639 3.411 9.52 4.722 16.035 1.844 9.166.951 12.268.134 12.655-.707.335-3.016-.57-7.453-5.484l-.347-.389 3.043-1.442zm-6.155-27.509l-.354-.027a9.512 9.512 0 00-1.731.023l-.471.049-.075-.468c-.65-4.097-1.245-7.56-1.823-9.377l-.082-.259.172-.21a4.09 4.09 0 012.88-1.492 4.091 4.091 0 012.99.988 4.081 4.081 0 011.414 2.803l-.499.036a3.58 3.58 0 00-1.242-2.46 3.591 3.591 0 00-2.627-.868 3.59 3.59 0 00-2.53 1.31c.593 1.862 1.192 5.368 1.841 9.45a10 10 0 011.822-.024c1.806-4.119 2.743-6.829 2.736-7.408l.5-.006c.003.23-.077.576-.19.967-.12.415-.296.948-.528 1.586-.464 1.278-1.154 2.996-2.06 5.062l-.143.325zm-1.57-12.933a5.252 5.252 0 013.844 1.27zm3.844 1.27a5.249 5.249 0 011.818 3.617zm-8.53 1.814a3.619 3.619 0 00-4.816-1.716 3.619 3.619 0 00-1.72 4.813c.596 1.26 3.777 4.857 6.352 7.738a10.14 10.14 0 012.174-1.027c-.55-3.479-1.375-8.509-1.99-9.808zM6.212 18.504a3.587 3.587 0 001.125 2.526c.437.366 3.127 1.357 7.459 2.566.35-.503.748-.976 1.19-1.412-2.922-3.273-5.14-5.817-6.167-7.39-.988 0-1.925.4-2.616 1.127a3.591 3.591 0 00-.991 2.583z" fill="#F5FAFF"/><path d="M22.973 29.338a1.088 1.088 0 00-1.448-.517l-3.478 1.648a1.088 1.088 0 00.932 1.965l3.477-1.647c.543-.258.775-.906.517-1.45z" fill="#000"/><path fill-rule="evenodd" clip-rule="evenodd" d="M22.522 29.552a.588.588 0 00-.783-.28l-3.478 1.649a.588.588 0 00.504 1.062l3.477-1.648a.588.588 0 00.28-.783zm-.997-.731a1.088 1.088 0 01.931 1.965l-3.477 1.648a1.088 1.088 0 01-.932-1.965l3.478-1.648z" fill="#F5FAFF"/><path d="M30.131 33.532l-5.564 2.637a1.088 1.088 0 00.931 1.965l5.565-2.637a1.088 1.088 0 00-.932-1.965z" fill="#000"/><path fill-rule="evenodd" clip-rule="evenodd" d="M30.345 33.983l-5.564 2.637a.588.588 0 10.503 1.062l5.565-2.637a.588.588 0 00-.504-1.062zm-5.778 2.186l5.564-2.637a1.088 1.088 0 11.932 1.965l-5.565 2.637a1.088 1.088 0 01-.931-1.965z" fill="#F5FAFF"/></svg>