<svg width="40" height="40" fill="none" xmlns="http://www.w3.org/2000/svg"><path d="M31.035 14.905c-.658 0-1.152.524-1.152 1.152a1.153 1.153 0 101.152-1.152zM7.276 11.102c-.599 0-1.047.48-1.047 1.033 0 .554.448 1.033 1.047 1.033a1.034 1.034 0 000-2.066z" fill="#020202"/><path d="M39.335 23.264v.003a.957.957 0 01-.132.639c-.157.257-.355.338-.762.503l-.015.007h0l-.005.002c-4.745 2.033-10.77 1.583-15.878.568-4.757-.957-8.445-2.367-8.951-2.56l-.047-.017c-1.456-.56-2.864-.729-4.205-.496-1.342.234-2.602.867-3.769 1.888-1.287 1.118-2.126 2.432-2.535 3.129l-.076.128.078.128c1.58 2.61 3.84 4.007 6.728 4.115h.001a11.2 11.2 0 003.059-.347 10.873 10.873 0 001.2-.379 2.575 2.575 0 00.1-.042l.01-.005a.898.898 0 011.23.66h0c.532 2.793.18 4.871-.992 6.255-1.333 1.56-3.256 1.633-3.551 1.633a.908.908 0 01-.471-.13c-.152-.09-2.04-1.242-4.107-3.252-2.077-2.019-4.315-4.886-5.175-8.398-1-4.086-.267-8.724 2.861-12.944h0a.897.897 0 011.358-.092.89.89 0 01.081 1.17v.002c-2.281 3.1-2.877 6.132-2.892 8.376l-.005.7.447-.539c1.618-1.949 3.461-3.147 5.383-3.665 1.922-.517 3.939-.36 5.913.43.083.034 3.885 1.521 8.754 2.483l.466.092-.189-.437c-1.14-2.642-1.638-5.273-1.3-7.677.337-2.397 1.508-4.584 3.74-6.347l.392-.31-.483-.128c-2.127-.562-4.415-.698-6.637-.531-1.856.136-4.022.528-5.773 1.213h-.001c-.739.293-1.442.676-2.274 1.22h0l-.002.002c-.03.02-.058.037-.09.056l-.034.02a1.435 1.435 0 00-.141.096.886.886 0 01-1.126-.11h0l-.002-.003a.891.891 0 01.13-1.38s0 0 0 0l.267-.177s0 0 0 0c1.591-1.046 2.97-1.678 5.258-2.18l.328-.072-.163-.293c-.688-1.235-1.88-2.633-4.667-3.265h0l-.007-.001c-.876-.175-.994-1.415-.1-1.734 3.755-1.3 7.552-1.33 10.71.925h0c1.78 1.27 2.865 2.953 3.454 4.1l.055.11.12.022c8.529 1.65 13.113 8.181 14.434 16.836zM17.256 6.096l.078.164.18-.024a24.096 24.096 0 014.531-.163l.53.032-.313-.429c-1.338-1.83-3.733-3.792-7.689-3.468l-.7.057.579.398c1.578 1.086 2.333 2.446 2.804 3.433zm-3.46 26.778l-.023-.303-.292.08c-2.384.647-4.93.658-7.202-.275l-.286.392c1.967 2.346 4.203 3.932 4.992 4.448l.08.052.094-.014c.429-.063 1.264-.272 1.875-.999l.002-.002c.628-.76.866-1.93.76-3.38zm11.77-9.32l.06.112.126.017c3.68.51 7.98.607 11.51-.747l.196-.075-.04-.205c-1.085-5.76-3.78-10.788-9.117-13.273l-.12-.056-.114.068c-2.152 1.282-3.548 2.945-4.122 4.98-1.002 3.527.63 7.332 1.62 9.178z" fill="#020202" stroke="#F5FAFF" stroke-width=".5"/></svg>