<svg width="40" height="18" fill="none" xmlns="http://www.w3.org/2000/svg"><path d="M38.945 0H8.425c-.323 0-.586.324-.586.724 0 .4.263.724.586.724h30.403v2.783H1.172V1.448h4.91c.323 0 .586-.324.586-.724 0-.4-.263-.724-.586-.724H1.055C.473 0 0 .585 0 1.303v3.073c0 .718.473 1.303 1.055 1.303h.826v10.873c0 .719.473 1.303 1.055 1.303h2.011c.582 0 1.055-.584 1.055-1.303V5.679h27.745v11.018c0 .718.473 1.303 1.054 1.303h2.012c.581 0 1.055-.585 1.055-1.303V5.679h1.077c.582 0 1.055-.585 1.055-1.303V1.303C40 .585 39.527 0 38.945 0zM4.83 16.407H3.053V5.68H4.83v10.728zm31.866.145h-1.777V5.679h1.777v10.873z" fill="#020202"/></svg>