<svg width="38" height="38" fill="none" xmlns="http://www.w3.org/2000/svg"><path d="M32.26 22.323h0a1.189 1.189 0 00-.656 1.547l1.694 4.192.231.57-.563-.248-5.033-2.218a1.189 1.189 0 00-.946-.006l-.098-.23.098.23a14.123 14.123 0 01-5.575 1.126c-7.836 0-13.127-6.138-13.127-11.914 0-6.592 5.913-11.914 13.127-11.914 7.215 0 13.127 5.322 13.127 11.914 0 .515-.047 1.129-.13 1.685-.097.65.35 1.255 1 1.352h0a1.188 1.188 0 001.351-1c.102-.68.157-1.403.157-2.037 0-3.835-1.623-7.436-4.58-10.142-2.92-2.674-6.8-4.15-10.925-4.15-4.124 0-8.003 1.476-10.925 4.15-2.642 2.418-4.218 5.552-4.523 8.927l-.011.12-.1.066C2.54 16.537.584 20.045.584 23.817c0 2.358.742 4.595 2.158 6.522l.082.113-.052.129-2.101 5.198-.204-.082.204.082a1.19 1.19 0 00.274 1.3h0c.227.219.525.335.828.335L32.26 22.323zm0 0a1.189 1.189 0 011.548.656l3.022 7.477c.182.448.073.962-.274 1.299l.168.174-.168-.174a1.189 1.189 0 01-1.307.234l-7.72-3.403-.093-.041-.097.037c-.954.364-1.937.637-2.943.818l-.111.02-.059.096c-1.024 1.684-2.485 3.112-4.265 4.153a13.37 13.37 0 01-6.645 1.8h-.008l-.008.001c-.039.003-.064.005-.089.005-1.634 0-3.215-.282-4.711-.839l-.095-.035-.093.04-6.06 2.672h0m30.008-14.99L2.252 37.313m0 0c-.154.068-.317.1-.479.1l.48-.1zm10.9-4.216h.011c.048-.003.03-.003.048-.003 2.898 0 5.64-1.132 7.56-3.021l.407-.401-.571-.027c-3.928-.185-7.561-1.718-10.306-4.36-2.207-2.123-3.667-4.824-4.184-7.643l-.085-.461-.335.328c-1.738 1.695-2.735 3.937-2.735 6.308 0 2.071.739 4.03 2.13 5.663l.19-.162-.19.162c.288.337.364.806.198 1.217l-1.087 2.688-.23.571.563-.248 3.37-1.485h0c.3-.133.643-.135.945-.006h0c1.352.577 2.8.872 4.3.88z" fill="#020202" stroke="#F5FAFF" stroke-width=".5"/></svg>