<svg width="64" height="64" fill="none" xmlns="http://www.w3.org/2000/svg"><path d="M30.287 2.029A29.769 29.769 0 005.223 45.266L2.063 60.6a1.158 1.158 0 001.4 1.361l15.03-3.561A29.76 29.76 0 1030.287 2.029z" stroke="#fff" stroke-width="2" stroke-miterlimit="10" stroke-linecap="round" stroke-linejoin="round"/><path d="M46.184 38.205L40.42 36.55a2.15 2.15 0 00-2.127.561l-1.41 1.436a2.1 2.1 0 01-2.283.482c-2.727-1.1-8.463-6.2-9.927-8.754a2.1 2.1 0 01.167-2.328l1.23-1.592a2.148 2.148 0 00.264-2.183l-2.424-5.485a2.148 2.148 0 00-3.355-.769c-1.61 1.361-3.517 3.428-3.75 5.719-.409 4.039 1.323 9.13 7.872 15.242 7.566 7.063 13.627 8 17.572 7.04 2.237-.542 4.026-2.714 5.154-4.493a2.151 2.151 0 00-1.218-3.221z" fill="#fff" stroke="#fff" stroke-width="2" stroke-miterlimit="10" stroke-linecap="round" stroke-linejoin="round"/></svg>