<svg width="29" height="29" viewBox="0 0 29 29" fill="none" xmlns="http://www.w3.org/2000/svg">
<path d="M26.0794 17.0647C25.849 16.4947 25.2001 16.2193 24.6301 16.4498C24.06 16.6803 23.7847 17.3291 24.0152 17.8991L25.3263 21.1424L21.4323 19.4258C21.1504 19.3016 20.8296 19.2996 20.5463 19.4205C19.2155 19.9883 17.7899 20.2762 16.3091 20.2762C10.3492 20.2762 6.34553 15.6098 6.34553 11.2513C6.34553 6.27503 10.8152 2.22649 16.3091 2.22649C21.803 2.22649 26.2726 6.27503 26.2726 11.2513C26.2726 11.6396 26.2364 12.1045 26.1735 12.5267C26.0828 13.1348 26.5022 13.7013 27.1103 13.792C27.7184 13.883 28.2849 13.4634 28.3756 12.8553C28.4552 12.3215 28.4991 11.7518 28.4991 11.2513C28.4991 8.22721 27.2185 5.38966 24.8931 3.26142C22.5953 1.15828 19.5467 0 16.3091 0C13.0714 0 10.0229 1.15828 7.72501 3.26136C5.64703 5.16323 4.4042 7.63174 4.16313 10.2935C1.5494 12.0243 3.71162e-05 14.7979 3.71162e-05 17.7855C3.71162e-05 19.6517 0.587997 21.4225 1.7072 22.9463L0.0811927 26.9686C-0.0886328 27.3886 0.0130621 27.8697 0.338408 28.1851C0.550425 28.3907 0.829794 28.4991 1.1135 28.4991C1.26507 28.4991 1.41792 28.4682 1.56231 28.4045L6.25068 26.3378C7.43006 26.7768 8.67672 26.999 9.96352 26.999C9.99135 26.999 10.0187 26.9969 10.046 26.9949C11.9072 26.9808 13.7166 26.4912 15.2837 25.5751C16.6874 24.7544 17.8421 23.627 18.6516 22.2956C19.4419 22.1537 20.2144 21.9393 20.9642 21.6527L26.9368 24.2855C27.0812 24.3491 27.234 24.3801 27.3856 24.3801C27.6693 24.3801 27.9487 24.2716 28.1607 24.0661C28.4861 23.7507 28.5878 23.2697 28.418 22.8496L26.0794 17.0647ZM9.96363 24.7697C9.94844 24.7697 9.93363 24.7714 9.91855 24.772C8.78181 24.7662 7.68772 24.5428 6.66592 24.1068C6.38266 23.9859 6.06188 23.9878 5.78 24.1121L3.17295 25.2613L4.01395 23.1809C4.16942 22.7964 4.09811 22.3572 3.82904 22.0415C2.78064 20.8116 2.22653 19.3399 2.22653 17.7855C2.22653 16.0065 2.97491 14.3208 4.2843 13.0427C4.69197 15.265 5.84224 17.3909 7.57739 19.0609C9.73659 21.1389 12.5926 22.3428 15.6766 22.4877C14.2287 23.9129 12.1567 24.7697 9.96363 24.7697Z" fill="#020202"/>
<path d="M16.2534 12.4126C16.8682 12.4126 17.3666 11.9142 17.3666 11.2993C17.3666 10.6845 16.8682 10.1861 16.2534 10.1861C15.6386 10.1861 15.1401 10.6845 15.1401 11.2993C15.1401 11.9142 15.6386 12.4126 16.2534 12.4126Z" fill="#020202"/>
<path d="M20.7075 12.4126C21.3223 12.4126 21.8207 11.9142 21.8207 11.2993C21.8207 10.6845 21.3223 10.1861 20.7075 10.1861C20.0927 10.1861 19.5942 10.6845 19.5942 11.2993C19.5942 11.9142 20.0927 12.4126 20.7075 12.4126Z" fill="#020202"/>
<path d="M11.8003 12.4126C12.4151 12.4126 12.9135 11.9142 12.9135 11.2993C12.9135 10.6845 12.4151 10.1861 11.8003 10.1861C11.1854 10.1861 10.687 10.6845 10.687 11.2993C10.687 11.9142 11.1854 12.4126 11.8003 12.4126Z" fill="#020202"/>
</svg>
