<svg width="65" height="66" viewBox="0 0 65 66" fill="none" xmlns="http://www.w3.org/2000/svg">
<path d="M0.721492 55.0444C0.721492 60.5622 5.26475 65.05 10.8479 65.05H44.1848C50.2649 65.05 55.2122 60.1634 55.2122 54.1556V54.1555C55.2094 52.5019 54.828 50.8708 54.0973 49.3874C53.3797 47.9308 52.3441 46.6545 51.0673 45.6526C56.4345 43.6164 60.662 39.2469 62.6165 33.5851C62.6926 33.3647 62.6978 33.126 62.6313 32.9025C62.5649 32.679 62.4302 32.4819 62.2461 32.3388C62.062 32.1958 61.8377 32.114 61.6047 32.1049C61.3718 32.0958 61.1418 32.1598 60.9471 32.2881C59.0814 33.517 57.0145 34.0902 54.4385 34.0902C47.5575 34.0902 41.9573 28.3552 41.9573 21.3034C41.9573 15.9874 45.3896 10.9712 50.3023 9.10587C50.5189 9.02381 50.7046 8.87643 50.8337 8.68414C50.9628 8.49183 51.0289 8.26412 51.0229 8.03255C51.0169 7.80099 50.939 7.57703 50.8001 7.3917C50.6611 7.20637 50.468 7.06884 50.2474 6.99817C48.283 6.36772 46.0238 6.28325 44.0784 6.28325C33.1077 6.28325 24.1842 15.3982 24.1842 26.5999M0.721492 55.0444H0.769977L0.721492 55.0445C0.721492 55.0444 0.721492 55.0444 0.721492 55.0444ZM0.721492 55.0444C0.718209 52.4297 1.75195 49.9205 3.59596 48.0671C5.09202 46.5494 7.02873 45.5433 9.12953 45.1916C8.93169 44.342 8.83149 43.4725 8.83091 42.6C8.83091 36.102 14.182 30.8166 20.7589 30.8166C22.1263 30.817 23.4832 31.0524 24.7704 31.5122C24.3796 29.9042 24.1828 28.255 24.1842 26.5999M24.1842 26.5999L24.2331 26.6H24.1842C24.1842 26.5999 24.1842 26.5999 24.1842 26.5999ZM5.18405 49.637L5.1842 49.6368C6.62177 48.1807 8.56723 47.3378 10.6126 47.285L10.6128 47.285C10.7891 47.2798 10.9617 47.2329 11.1163 47.1481C11.271 47.0633 11.4034 46.943 11.5027 46.7972C11.6019 46.6513 11.6652 46.484 11.6873 46.309C11.7095 46.134 11.6898 45.9562 11.63 45.7902L11.63 45.7901C11.2578 44.7675 11.0661 43.6881 11.0635 42.5999C11.0635 37.3349 15.4122 33.05 20.7585 33.05C24.7878 33.05 28.4378 35.5573 29.8413 39.2872C29.8952 39.4303 29.9779 39.5609 30.0842 39.6708C30.1906 39.7806 30.3184 39.8675 30.4598 39.9259C30.6011 39.9844 30.7529 40.0131 30.9058 40.0105C31.0587 40.0078 31.2094 39.9737 31.3486 39.9104L31.3487 39.9104C32.2666 39.4898 33.2644 39.2722 34.2741 39.2722C37.5946 39.2722 40.4769 41.5951 41.1286 44.7941C41.1875 45.0833 41.3585 45.3374 41.6041 45.5008C41.8498 45.6643 42.1502 45.7239 42.4396 45.6665L42.4299 45.6175L42.4396 45.6665C43.0144 45.5523 43.599 45.4946 44.185 45.4941C49.0348 45.4944 52.9793 49.3806 52.9793 54.1556C52.9793 58.9305 49.0348 62.8167 44.1848 62.8167H10.8479C6.49474 62.8167 2.95446 59.3293 2.95446 55.0444C2.95252 53.0177 3.75434 51.0731 5.18405 49.637ZM46.5034 8.59057C42.3968 11.3921 39.7243 16.2316 39.7243 21.3034C39.7243 29.5846 46.3241 36.3236 54.4385 36.3236C56.2411 36.3236 57.8422 36.0796 59.3177 35.5692C57.024 39.8281 53.1437 42.9311 48.4952 44.1294C46.7741 43.4066 44.899 43.1285 43.0426 43.3204C41.8191 39.6244 38.2877 37.0393 34.2739 37.0393C33.3277 37.0385 32.3871 37.1837 31.4853 37.4696C30.5798 35.6356 29.2153 34.0668 27.5243 32.9158C26.788 30.8918 26.4132 28.754 26.4171 26.6V26.6C26.4171 16.6276 34.3412 8.51659 44.0784 8.51659C44.8545 8.51659 45.6802 8.5304 46.5034 8.59057Z" fill="#64D370" stroke="#64D370" stroke-width="0.1"/>
<path d="M52.6771 20.1927L54.4897 20.7969L53.1675 22.7802C53.1675 22.7802 53.1674 22.7803 53.1674 22.7803C53.0852 22.9023 53.0278 23.0393 52.9987 23.1835C52.9696 23.3277 52.9692 23.4763 52.9977 23.6206C53.0261 23.765 53.0828 23.9023 53.1646 24.0247C53.2463 24.1471 53.3513 24.2521 53.4738 24.3337C53.5962 24.4153 53.7335 24.472 53.8779 24.5003C54.0223 24.5287 54.1709 24.5283 54.3151 24.499C54.4593 24.4698 54.5963 24.4124 54.7182 24.33C54.8401 24.2477 54.9445 24.1421 55.0255 24.0193C55.0255 24.0193 55.0256 24.0192 55.0256 24.0191L56.2297 22.2131L57.434 24.0195L57.4342 24.0197C57.5992 24.2644 57.8544 24.4338 58.1439 24.4909C58.4335 24.548 58.7339 24.4881 58.9794 24.3244C59.225 24.1607 59.3957 23.9064 59.4543 23.6171C59.513 23.3279 59.4547 23.0272 59.2923 22.7808L59.2921 22.7806L57.9698 20.797L59.7829 20.1927L59.7834 20.1925C60.0616 20.0967 60.2908 19.8949 60.421 19.6311C60.5513 19.3673 60.5722 19.0627 60.4792 18.7835C60.3861 18.5044 60.1866 18.2732 59.9241 18.1403C59.6615 18.0075 59.3571 17.9836 59.0771 18.0739L59.0766 18.0741L57.3464 18.6507V17C57.3464 16.7039 57.2288 16.4198 57.0193 16.2104C56.8099 16.001 56.5259 15.8833 56.2297 15.8833C55.9336 15.8833 55.6496 16.001 55.4401 16.2104C55.2307 16.4198 55.1131 16.7039 55.1131 17V18.6507L53.3833 18.0741C53.3833 18.0741 53.3832 18.074 53.3831 18.074C53.2437 18.026 53.0961 18.0061 52.9489 18.0155C52.8016 18.0249 52.6577 18.0633 52.5254 18.1287C52.393 18.194 52.275 18.2849 52.178 18.3962C52.0811 18.5074 52.0071 18.6368 51.9604 18.7767C51.9138 18.9167 51.8953 19.0646 51.9061 19.2118C51.9169 19.3589 51.9568 19.5025 52.0235 19.6342C52.0901 19.7658 52.1822 19.883 52.2944 19.9788C52.4065 20.0747 52.5365 20.1473 52.6768 20.1926C52.6769 20.1926 52.677 20.1927 52.6771 20.1927Z" fill="#64D370" stroke="#64D370" stroke-width="0.1"/>
<path d="M8.10157 32.3802L6.77936 30.3969L8.59246 29.7925L8.59293 29.7924C8.87116 29.6966 9.10032 29.4948 9.23061 29.231C9.36091 28.9671 9.38179 28.6625 9.28872 28.3834C9.19566 28.1042 8.99617 27.8731 8.73362 27.7402C8.47108 27.6073 8.16669 27.5834 7.88664 27.6738L7.88618 27.6739L6.15598 28.2505V26.5999C6.15598 26.3037 6.03833 26.0197 5.82892 25.8103C5.6195 25.6009 5.33547 25.4832 5.03931 25.4832C4.74315 25.4832 4.45912 25.6009 4.24971 25.8103C4.04029 26.0197 3.92264 26.3037 3.92264 26.5999V28.2505L2.19292 27.6739C2.19284 27.6739 2.19276 27.6739 2.19268 27.6739C2.05323 27.6259 1.90564 27.606 1.75846 27.6153C1.61119 27.6247 1.46724 27.6632 1.33493 27.7285C1.20261 27.7939 1.08456 27.8848 0.987601 27.996C0.890638 28.1073 0.816683 28.2366 0.770013 28.3766C0.723343 28.5166 0.704883 28.6644 0.715699 28.8116C0.726516 28.9588 0.766395 29.1023 0.833031 29.234C0.899667 29.3657 0.991739 29.4828 1.10392 29.5787C1.21605 29.6745 1.34604 29.7472 1.4864 29.7925C1.48648 29.7925 1.48655 29.7925 1.48663 29.7925L3.29926 30.3967L1.97705 32.3801C1.97703 32.3801 1.97701 32.3801 1.97699 32.3802C1.89474 32.5021 1.83741 32.6391 1.80827 32.7833C1.77913 32.9276 1.77878 33.0761 1.80724 33.2205C1.8357 33.3649 1.89242 33.5022 1.97412 33.6245C2.05583 33.7469 2.16091 33.8519 2.28334 33.9336C2.40576 34.0152 2.54312 34.0718 2.6875 34.1002C2.83188 34.1286 2.98045 34.1281 3.12466 34.0989C3.26887 34.0697 3.40588 34.0122 3.52782 33.9299C3.64971 33.8475 3.75413 33.742 3.83509 33.6192C3.83513 33.6191 3.83516 33.6191 3.83519 33.619L5.03931 31.813L6.24343 33.6191C6.24346 33.6192 6.24348 33.6192 6.2435 33.6192C6.32447 33.7421 6.4289 33.8477 6.5508 33.93C6.67274 34.0124 6.80975 34.0698 6.95397 34.099C7.09818 34.1283 7.24674 34.1287 7.39113 34.1003C7.53551 34.072 7.67286 34.0153 7.79529 33.9337C7.91771 33.8521 8.0228 33.7471 8.1045 33.6247C8.18621 33.5023 8.24292 33.365 8.27138 33.2206C8.29985 33.0763 8.2995 32.9277 8.27035 32.7835C8.24122 32.6393 8.1839 32.5023 8.10168 32.3804C8.10164 32.3803 8.10161 32.3802 8.10157 32.3802Z" fill="#64D370" stroke="#64D370" stroke-width="0.1"/>
<path d="M7.8862 7.39248L9.6993 7.99684L8.37694 9.98051C8.37694 9.98051 8.37694 9.98051 8.37694 9.98051C8.21265 10.2269 8.15297 10.5285 8.21103 10.8189C8.26909 11.1093 8.44014 11.3648 8.68654 11.529C8.93294 11.6933 9.23452 11.753 9.52493 11.695C9.81533 11.6369 10.0708 11.4659 10.2351 11.2195L10.1941 11.1921L10.2351 11.2194L11.4393 9.41305L12.6436 11.2195L12.6438 11.2197C12.8088 11.4643 13.064 11.6337 13.3535 11.6908C13.6431 11.7479 13.9435 11.6881 14.189 11.5243C14.4346 11.3606 14.6053 11.1063 14.6639 10.8171C14.7226 10.5278 14.6643 10.2271 14.5019 9.98073L14.5018 9.98051L13.1794 7.99698L14.9925 7.39261L14.993 7.39245C15.2712 7.29665 15.5004 7.0949 15.6306 6.83106C15.7609 6.56722 15.7818 6.26261 15.6888 5.98346C15.5957 5.7043 15.3962 5.47317 15.1337 5.34029C14.8711 5.20741 14.5667 5.18353 14.2867 5.27385L14.2862 5.274L12.556 5.85061V4.19997C12.556 3.90381 12.4384 3.61978 12.229 3.41037C12.0195 3.20095 11.7355 3.0833 11.4393 3.0833C11.1432 3.0833 10.8592 3.20095 10.6497 3.41037C10.4403 3.61978 10.3227 3.90381 10.3227 4.19997V5.8506L8.59249 5.27387L8.59249 5.27387L8.59202 5.27372C8.31197 5.1834 8.00758 5.20728 7.74504 5.34015C7.48249 5.47303 7.283 5.70417 7.18994 5.98332C7.09687 6.26248 7.11776 6.56708 7.24805 6.83092C7.37834 7.09477 7.6075 7.29652 7.88573 7.39232L7.8862 7.39248Z" fill="#64D370" stroke="#64D370" stroke-width="0.1"/>
<path d="M61.5628 7.44994C62.1795 7.44994 62.6794 6.94999 62.6794 6.33327C62.6794 5.71655 62.1795 5.2166 61.5628 5.2166C60.946 5.2166 60.4461 5.71655 60.4461 6.33327C60.4461 6.94999 60.946 7.44994 61.5628 7.44994Z" fill="#64D370" stroke="#64D370" stroke-width="0.1"/>
<path d="M17.8362 23.4502C18.4529 23.4502 18.9529 22.9502 18.9529 22.3335C18.9529 21.7168 18.4529 21.2168 17.8362 21.2168C17.2195 21.2168 16.7195 21.7168 16.7195 22.3335C16.7195 22.9502 17.2195 23.4502 17.8362 23.4502Z" fill="#64D370" stroke="#64D370" stroke-width="0.1"/>
<path d="M33.8333 3.18334C34.45 3.18334 34.9499 2.68339 34.9499 2.06667C34.9499 1.44995 34.45 0.95 33.8333 0.95C33.2166 0.95 32.7166 1.44995 32.7166 2.06667C32.7166 2.68339 33.2166 3.18334 33.8333 3.18334Z" fill="#64D370" stroke="#64D370" stroke-width="0.1"/>
<path d="M63.6966 44.7832C64.3133 44.7832 64.8132 44.2832 64.8132 43.6665C64.8132 43.0498 64.3133 42.5499 63.6966 42.5499C63.0798 42.5499 62.5799 43.0498 62.5799 43.6665C62.5799 44.2832 63.0798 44.7832 63.6966 44.7832Z" fill="#64D370" stroke="#64D370" stroke-width="0.1"/>
</svg>
