<svg width="68" height="68" viewBox="0 0 68 68" fill="none" xmlns="http://www.w3.org/2000/svg">
<path d="M62.5269 14.8895H65.5896C66.3156 14.8895 66.9042 14.2892 66.9042 13.5487C66.9042 12.8081 66.3156 12.2078 65.5896 12.2078H59.8492C59.1231 12.2078 58.5346 12.8081 58.5346 13.5487V19.4038C58.5346 20.1444 59.1231 20.7447 59.8492 20.7447C60.5752 20.7447 61.1637 20.1444 61.1637 19.4038V17.7399C68.1239 29.9496 66.2738 45.8477 56.2836 56.0376C47.4733 65.024 34.3105 67.7655 22.75 63.0216C22.0764 62.7454 21.3108 63.078 21.0397 63.7651C20.7687 64.4522 21.0951 65.2333 21.7687 65.5096C25.8527 67.1854 30.1201 68 34.3497 68C43.1069 68 51.6985 64.5069 58.1428 57.934C63.8973 52.0645 67.3701 44.2763 67.9217 36.0043C68.4204 28.5228 66.512 21.1054 62.5269 14.8895Z" fill="#64D370"/>
<path d="M8.32576 47.3033C7.59971 47.3033 7.01117 47.9036 7.01117 48.6442V50.5525C-0.152706 38.3041 1.64355 22.2282 11.716 11.9545C20.5868 2.90634 33.8206 0.194308 45.4299 5.04516C46.1019 5.32607 46.8695 4.99782 47.1448 4.31278C47.4199 3.62746 47.0984 2.84439 46.4266 2.56375C40.3619 0.0295155 33.7429 -0.642258 27.2847 0.621239C20.6666 1.91598 14.6401 5.17924 9.85687 10.0581C4.10237 15.9278 0.629477 23.7159 0.0778742 31.9878C-0.425746 39.5413 1.52511 47.0291 5.58891 53.2813H2.46478C1.73873 53.2813 1.15019 53.8816 1.15019 54.6222C1.15019 55.3627 1.73873 55.963 2.46478 55.963H8.32563C9.05168 55.963 9.64022 55.3627 9.64022 54.6222V48.6442C9.64036 47.9036 9.05181 47.3033 8.32576 47.3033Z" fill="#64D370"/>
<path d="M30.8761 28.909C30.6922 29.0018 30.5519 29.1653 30.4862 29.3635C30.4205 29.5618 30.4346 29.7786 30.5256 29.9662L34.87 38.9256C34.961 39.1132 35.1213 39.2562 35.3157 39.3233C35.51 39.3903 35.7226 39.3759 35.9065 39.2831C36.0904 39.1903 36.2306 39.0268 36.2964 38.8285C36.3621 38.6303 36.3479 38.4135 36.257 38.2259L31.9125 29.2665C31.8216 29.0789 31.6613 28.9358 31.4669 28.8688C31.2725 28.8018 31.06 28.8162 30.8761 28.909Z" fill="#64D370"/>
<path d="M39.9552 36.3602L35.6108 27.4008C35.5198 27.2132 35.3595 27.0702 35.1651 27.0031C34.9708 26.9361 34.7582 26.9505 34.5743 27.0433C34.3904 27.1361 34.2502 27.2996 34.1844 27.4979C34.1187 27.6961 34.1329 27.9129 34.2238 28.1005L38.5683 37.0599C38.6592 37.2475 38.8195 37.3906 39.0139 37.4576C39.2083 37.5246 39.4208 37.5102 39.6047 37.4174C39.7886 37.3246 39.9289 37.1611 39.9946 36.9629C40.0603 36.7646 40.0462 36.5478 39.9552 36.3602Z" fill="#64D370"/>
<path d="M51.6319 17.7224C51.6148 17.6238 51.5704 17.5321 51.5039 17.4584C51.4757 17.4166 51.4434 17.3778 51.4075 17.3426C51.3676 17.309 51.3245 17.2797 51.2787 17.255C51.249 17.2312 51.2174 17.2099 51.1844 17.1911L51.1222 17.1696C50.6591 17.057 40.78 14.3289 32.3019 16.8158C31.8534 15.0857 31.2967 13.3866 30.6352 11.729C30.6352 11.729 30.6352 11.729 30.6214 11.7007C30.6077 11.6724 30.6054 11.6677 30.5963 11.6488C30.5794 11.6046 30.5588 11.562 30.5345 11.5215C30.4878 11.4667 30.4336 11.4189 30.3737 11.3796L30.36 11.3513C30.3004 11.314 30.2361 11.2852 30.1689 11.2658C30.107 11.2506 30.0435 11.2432 29.9798 11.2438L29.9521 11.2578C29.8878 11.2622 29.8242 11.2745 29.7628 11.2946L29.5733 11.3902C27.368 12.726 25.2815 14.2557 23.3375 15.9621C20.2954 18.6119 16.3124 22.8339 14.6371 27.8988C11.7561 36.5887 18.9565 42.7399 19.3748 43.0805L19.3908 43.1135C19.4313 43.143 19.4744 43.1684 19.5197 43.1894L19.5911 43.2179L19.7155 43.2491L19.7939 43.2565L19.8309 43.2378C22.0428 43.1327 24.2103 42.5666 26.1995 41.5744C27.6747 40.843 29.0008 39.8334 30.108 38.5991L32.0058 42.5129C32.731 44.0709 33.9214 45.3545 35.4063 46.1794L36.9206 46.9883C38.1015 47.6604 39.0489 48.6897 39.6322 49.9341L42.8676 56.6065C42.9586 56.7941 43.1189 56.9372 43.3133 57.0042C43.5076 57.0713 43.7202 57.0568 43.9041 56.964C44.088 56.8712 44.2283 56.7077 44.294 56.5095C44.3597 56.3112 44.3455 56.0945 44.2546 55.9069L41.0191 49.2344C40.294 47.6765 39.1035 46.3929 37.6186 45.568L36.1135 44.7779C34.9263 44.1024 33.9753 43.0661 33.3928 41.8133L28.2138 31.1327C28.1228 30.9451 27.9625 30.802 27.7681 30.735C27.5738 30.6679 27.3612 30.6824 27.1773 30.7752C26.9934 30.868 26.8531 31.0315 26.7874 31.2297C26.7217 31.428 26.7359 31.6448 26.8268 31.8323L29.3603 37.0571C26.7769 40.3206 22.8678 41.2656 20.9568 41.5371L29.9618 14.3987C31.104 17.7669 31.8344 21.2659 32.1365 24.8166C32.1515 25.0254 32.2472 25.2195 32.4025 25.3563C32.5579 25.4931 32.7602 25.5614 32.9649 25.5461C33.1696 25.5307 33.3599 25.4331 33.494 25.2746C33.6282 25.1162 33.6951 24.9099 33.68 24.7011C33.5194 22.5593 33.1929 20.4338 32.7037 18.3445C39.3851 16.3649 47.2465 17.8748 49.8227 18.4767C48.8564 20.6016 46.0643 26.2945 41.7307 30.529L39.3092 25.5353C39.2182 25.3477 39.0579 25.2047 38.8636 25.1376C38.6692 25.0706 38.4567 25.085 38.2728 25.1778C38.0888 25.2706 37.9486 25.4341 37.8829 25.6324C37.8171 25.8306 37.8313 26.0474 37.9223 26.235L43.1013 36.9156C43.7236 38.1482 43.9539 39.5481 43.7601 40.9204L43.4622 42.6201C43.2041 44.3244 43.4817 46.0684 44.2553 47.6019L47.4907 54.2743C47.5817 54.4619 47.742 54.6049 47.9364 54.672C48.1307 54.739 48.3433 54.7246 48.5272 54.6318C48.7111 54.539 48.8514 54.3755 48.9171 54.1772C48.9828 53.979 48.9686 53.7622 48.8777 53.5746L45.6422 46.9022C45.0268 45.674 44.7999 44.2814 44.9926 42.9162L45.2904 41.2166C45.5497 39.5051 45.2688 37.7538 44.4882 36.2159L42.4463 32.005C48.3031 26.4973 51.4669 18.5687 51.5975 18.2328L51.6208 18.1741C51.6262 18.1359 51.6287 18.0974 51.6282 18.0588C51.6368 18.0068 51.6401 17.954 51.6381 17.9013C51.643 17.8416 51.6409 17.7816 51.6319 17.7224ZM28.4877 13.8981L22.6463 31.5174L18.6746 23.3266C21.715 18.917 26.0587 15.5695 28.4877 13.8981ZM19.4919 41.0436C17.7349 39.2713 14.0112 34.5824 16.0744 28.3593C16.4892 27.1341 17.0292 25.9568 17.6855 24.8468L21.9476 33.6364L19.4919 41.0436Z" fill="#64D370"/>
</svg>
