<svg width="67" height="67" viewBox="0 0 67 67" fill="none" xmlns="http://www.w3.org/2000/svg">
<path d="M60.015 45.4226L45.0038 54.3161L39.286 50.7029H46.4747C47.5751 50.7029 48.6304 50.2658 49.4084 49.4877C50.1865 48.7097 50.6236 47.6544 50.6236 46.5541C50.6236 45.4537 50.1865 44.3984 49.4084 43.6204C48.6304 42.8423 47.5751 42.4052 46.4747 42.4052H34.1263C32.7061 42.3969 31.2967 42.6527 29.9699 43.1596L20.3673 47.5196V46.5541C20.3673 46.254 20.2481 45.9662 20.0359 45.754C19.8237 45.5418 19.5359 45.4226 19.2358 45.4226H10.9381C10.638 45.4226 10.3502 45.5418 10.138 45.754C9.92585 45.9662 9.80664 46.254 9.80664 46.5541V65.4124C9.80664 65.7125 9.92585 66.0003 10.138 66.2125C10.3502 66.4247 10.638 66.5439 10.9381 66.5439H19.2358C19.5359 66.5439 19.8237 66.4247 20.0359 66.2125C20.2481 66.0003 20.3673 65.7125 20.3673 65.4124V64.2809H43.8195C45.3038 64.2833 46.7508 63.816 47.9532 62.9457L63.9903 51.4572C64.6608 50.8793 65.0979 50.077 65.22 49.2003C65.3422 48.3236 65.141 47.4325 64.6541 46.6933C64.1671 45.9541 63.4277 45.4175 62.574 45.1836C61.7203 44.9498 60.8107 45.0347 60.015 45.4226ZM18.1043 64.2809H12.0696V47.6856H18.1043V64.2809ZM62.6778 49.6544L46.6332 61.1127C45.8141 61.7035 44.8293 62.0203 43.8195 62.0179H20.3673V50.0014L30.8374 45.2717C31.8874 44.8702 33.0023 44.6657 34.1263 44.6682H46.4747C46.9749 44.6682 47.4546 44.8669 47.8082 45.2206C48.1619 45.5742 48.3606 46.0539 48.3606 46.5541C48.3606 47.0542 48.1619 47.5339 47.8082 47.8875C47.4546 48.2412 46.9749 48.4399 46.4747 48.4399H35.3785C35.1329 48.4396 34.8939 48.5192 34.6976 48.6667C34.5013 48.8142 34.3582 49.0215 34.2901 49.2574C34.2219 49.4934 34.2324 49.745 34.3199 49.9745C34.4074 50.2039 34.5671 50.3987 34.775 50.5294L44.3777 56.564C44.5558 56.6734 44.7608 56.7314 44.9698 56.7314C45.1789 56.7314 45.3839 56.6734 45.562 56.564L61.1767 47.2933C61.4825 47.1141 61.8455 47.0594 62.1905 47.1406C62.5355 47.2217 62.8361 47.4324 63.0301 47.7291C63.224 48.0258 63.2963 48.3857 63.2322 48.7343C63.168 49.0828 62.9722 49.3934 62.6854 49.6016L62.6778 49.6544Z" fill="#64D370"/>
<path d="M65.2498 36.3704H62.6096C62.419 29.4365 59.7561 22.7991 55.1014 17.6561C50.4467 12.5131 44.1069 9.20344 37.2263 8.32437C37.8573 7.61886 38.2706 6.74581 38.4163 5.81059C38.562 4.87537 38.4339 3.91797 38.0475 3.05395C37.661 2.18992 37.0328 1.45621 36.2386 0.941375C35.4443 0.426539 34.5181 0.152588 33.5716 0.152588C32.6251 0.152588 31.6988 0.426539 30.9046 0.941375C30.1103 1.45621 29.4821 2.18992 29.0957 3.05395C28.7092 3.91797 28.5811 4.87537 28.7269 5.81059C28.8726 6.74581 29.2859 7.61886 29.9168 8.32437C23.0342 9.2003 16.6918 12.5088 12.0353 17.6523C7.37879 22.7957 4.71531 29.4349 4.52599 36.3704H1.1315C0.831407 36.3704 0.543605 36.4897 0.331408 36.7019C0.119211 36.9141 0 37.2019 0 37.5019C0 37.802 0.119211 38.0898 0.331408 38.302C0.543605 38.5142 0.831407 38.6334 1.1315 38.6334H65.2498C65.5499 38.6334 65.8377 38.5142 66.0499 38.302C66.262 38.0898 66.3813 37.802 66.3813 37.5019C66.3813 37.2019 66.262 36.9141 66.0499 36.7019C65.8377 36.4897 65.5499 36.3704 65.2498 36.3704ZM33.5678 2.42549C34.09 2.42549 34.6004 2.58033 35.0346 2.87043C35.4688 3.16054 35.8072 3.57288 36.007 4.0553C36.2068 4.53773 36.2591 5.06858 36.1572 5.58072C36.0554 6.09286 35.8039 6.56329 35.4347 6.93253C35.0654 7.30176 34.595 7.55321 34.0829 7.65508C33.5707 7.75696 33.0399 7.70467 32.5574 7.50484C32.075 7.30502 31.6627 6.96662 31.3726 6.53245C31.0825 6.09827 30.9276 5.58782 30.9276 5.06565C30.9276 4.36544 31.2058 3.6939 31.7009 3.19877C32.196 2.70365 32.8676 2.42549 33.5678 2.42549ZM33.5678 10.346C40.5395 10.3489 47.2356 13.0684 52.2353 17.9272C57.2349 22.786 60.1445 29.4017 60.3466 36.3704H6.78899C6.9911 29.4017 9.90069 22.786 14.9003 17.9272C19.9 13.0684 26.5961 10.3489 33.5678 10.346Z" fill="#64D370"/>
<path d="M27.4866 15.7092C24.3783 16.5893 21.4992 18.1366 19.05 20.2432C16.6008 22.3497 14.6403 24.965 13.3051 27.9067C13.2301 28.0438 13.1842 28.1949 13.1704 28.3506C13.1566 28.5063 13.1753 28.6632 13.2251 28.8113C13.275 28.9594 13.355 29.0956 13.4601 29.2113C13.5652 29.3269 13.6932 29.4196 13.8359 29.4833C13.9786 29.5471 14.1329 29.5806 14.2892 29.5818C14.4455 29.5829 14.6003 29.5517 14.7439 29.49C14.8875 29.4283 15.0168 29.3376 15.1236 29.2235C15.2304 29.1094 15.3124 28.9744 15.3645 28.827C16.5665 26.1881 18.3289 23.8426 20.5291 21.9537C22.7294 20.0648 25.3146 18.6778 28.1051 17.8892C28.2483 17.8486 28.382 17.7802 28.4987 17.6879C28.6154 17.5956 28.7128 17.4812 28.7853 17.3512C28.8578 17.2213 28.904 17.0784 28.9213 16.9306C28.9385 16.7828 28.9265 16.633 28.8859 16.4899C28.8453 16.3468 28.7768 16.213 28.6845 16.0963C28.5922 15.9796 28.4779 15.8822 28.3479 15.8097C28.218 15.7372 28.075 15.691 27.9273 15.6738C27.7795 15.6565 27.6297 15.6686 27.4866 15.7092Z" fill="#64D370"/>
</svg>
