<svg width="89" height="61" viewBox="0 0 89 61" fill="none" xmlns="http://www.w3.org/2000/svg">
<path d="M63.2439 25.0362V25.1242H63.3319H74.8518C78.4552 25.1242 81.7691 26.9046 83.7196 29.8855L83.79 29.8394L83.7196 29.8855L88.174 36.6882C88.3124 36.8996 88.3866 37.1485 88.3866 37.4027V52.9213C88.3866 53.6432 87.8019 54.2278 87.0783 54.2278H82.3714H82.3015L82.2857 54.2958C81.5002 57.6683 78.4697 60.1921 74.8558 60.1921C71.2419 60.1921 68.2122 57.6683 67.4259 54.2958L67.4101 54.2278H67.3402H40.4663H40.3964L40.3805 54.2958C39.5951 57.6683 36.5662 60.1921 32.9507 60.1921C29.3359 60.1921 26.3063 57.6683 25.5208 54.2958L25.505 54.2278H25.4351H13.0464C12.3235 54.2278 11.7373 53.6431 11.7373 52.9213V51.5451C11.7373 48.7271 13.4431 46.3053 15.8753 45.2345L15.9278 45.2114V45.154V38.9791V38.8911H15.8398H1.87174C1.14809 38.8911 0.562609 38.3065 0.562609 37.5846C0.562609 36.8627 1.14809 36.278 1.87174 36.278H15.8398H15.9278V36.1901V33.4018V33.3138H15.8398H10.2521C9.52924 33.3138 8.94379 32.7299 8.94379 32.008C8.94379 31.2861 9.5293 30.7015 10.2521 30.7015H15.8398H15.9278V30.6135V27.8252V27.7372H15.8398H1.87174C1.14809 27.7372 0.562609 27.1526 0.562609 26.4307C0.562609 25.7088 1.14809 25.1242 1.87174 25.1242H13.4061H13.6968L13.4549 24.9629C9.79828 22.5261 7.38361 18.3733 7.38361 13.6661C7.38361 6.17975 13.4857 0.088 20.9872 0.088C27.6117 0.088 33.139 4.84314 34.3413 11.1106L34.355 11.182H34.4277H55.9929C59.992 11.182 63.2439 14.4281 63.2439 18.4193V25.0362ZM18.6333 38.8911H18.5453V38.9791V44.5573V44.6452H18.6333C18.6427 44.6452 18.6508 44.6441 18.6539 44.6437L18.6542 44.6437H60.5384H60.6264V44.5557V18.4193C60.6264 15.8695 58.5479 13.7943 55.9937 13.7943H34.6683H34.5817L34.5803 13.8809C34.5073 18.4987 32.1195 22.5634 28.5195 24.963L28.2776 25.1242H28.5683H36.792C37.5149 25.1242 38.1011 25.7088 38.1011 26.4307C38.1011 27.1526 37.5149 27.7372 36.792 27.7372H18.6333H18.5453V27.8252V30.6135V30.7015H18.6333H28.4116C29.1344 30.7015 29.7199 31.2861 29.7199 32.008C29.7199 32.7299 29.1345 33.3138 28.4116 33.3138H18.6333H18.5453V33.4018V36.1901V36.278H18.6333H21.4268C22.1504 36.278 22.7359 36.8627 22.7359 37.5846C22.7359 38.3065 22.1504 38.8911 21.4268 38.8911H18.6333ZM60.5384 51.6147H60.6264V51.5267V47.3439V47.2559H60.5384H38.6079H38.4061L38.5435 47.4038C39.5842 48.5246 40.2889 49.9536 40.5062 51.5387L40.5166 51.6147H40.5933H60.5384ZM27.3579 47.4038L27.4951 47.2559H27.2934H18.6509C16.2887 47.2559 14.3645 49.1706 14.3547 51.5264L14.3543 51.6147H14.4427H25.3088H25.3856L25.396 51.5386C25.6125 49.9536 26.318 48.5246 27.3579 47.4038ZM85.6811 51.6147H85.7691V51.5267V37.8175V37.7913L85.7548 37.7693L81.529 31.3136C80.0626 29.0737 77.5657 27.7372 74.8518 27.7372H63.3319H63.2439V27.8252V51.5267V51.6147H63.3319H67.2131H67.2899L67.3003 51.5387C67.8092 47.8264 70.9992 44.9532 74.8558 44.9532C78.7124 44.9532 81.9032 47.8264 82.4113 51.5387L82.4217 51.6147H82.4984H85.6811ZM20.9872 2.70027C14.9298 2.70027 10.0011 7.61958 10.0011 13.6661C10.0011 19.7126 14.9298 24.6319 20.9872 24.6319C27.0453 24.6319 31.9733 19.7126 31.9733 13.6661C31.9733 7.61959 27.0453 2.70027 20.9872 2.70027ZM27.9344 52.5726C27.9344 55.3339 30.1855 57.5798 32.9507 57.5798C35.7167 57.5798 37.967 55.3339 37.967 52.5726C37.967 49.8122 35.7167 47.5655 32.9507 47.5655C30.1855 47.5655 27.9344 49.8122 27.9344 52.5726ZM69.8395 52.5726C69.8395 55.3339 72.0906 57.5798 74.8558 57.5798C77.6218 57.5798 79.8721 55.3339 79.8721 52.5726C79.8721 49.8122 77.6218 47.5655 74.8558 47.5655C72.0906 47.5655 69.8395 49.8122 69.8395 52.5726Z" fill="#64D370" stroke="#E5E5E5" stroke-width="0.176"/>
<path d="M20.1187 13.2402L20.1018 13.2634L17.2507 17.167L17.2507 17.167C16.8247 17.75 16.9527 18.566 17.5367 18.9905L17.5369 18.9906C17.7707 19.1611 18.0401 19.2425 18.3075 19.2425C18.7114 19.2425 19.1097 19.0563 19.3657 18.7051L19.3658 18.705L22.4853 14.4353L20.1187 13.2402ZM20.1187 13.2402V13.2115M20.1187 13.2402V13.2115M20.1187 13.2115V7.56634C20.1187 6.84447 20.7041 6.26061 21.427 6.26061C22.1507 6.26061 22.7361 6.8445 22.7361 7.56634V13.6662M20.1187 13.2115L22.7361 13.6662M22.7361 13.6662C22.7361 13.9435 22.6478 14.2125 22.4853 14.4352L22.7361 13.6662Z" fill="#64D370" stroke="#E5E5E5" stroke-width="0.176"/>
<path d="M83.1451 38.1894L83.1452 38.1895C83.5627 38.9162 83.562 39.7873 83.1382 40.5155C82.7143 41.244 81.9592 41.6797 81.1146 41.6797H71.7135C70.9899 41.6797 70.4044 41.095 70.4044 40.3731V30.6138C70.4044 29.8919 70.9899 29.3072 71.7135 29.3072H74.3855C76.6527 29.3072 78.76 30.5286 79.8833 32.4908L83.1451 38.1894ZM73.0227 38.9794V39.0674H73.1107H80.4808H80.6325L80.5571 38.9357L77.6102 33.7876C76.9511 32.6352 75.7158 31.9203 74.3855 31.9203H73.1107H73.0227V32.0083V38.9794Z" fill="#64D370" stroke="#E5E5E5" stroke-width="0.176"/>
</svg>
