<svg width="51" height="65" viewBox="0 0 51 65" fill="none" xmlns="http://www.w3.org/2000/svg">
<path d="M8.31833 53.3706L9.09793 53.5105C9.28965 53.5449 11.22 53.8782 13.8767 53.8782C17.8523 53.8782 23.4532 53.1316 27.2814 49.5196C33.668 43.4939 32.3799 32.0816 32.3219 31.5986L32.2276 30.8123L31.448 30.6724C30.9693 30.5864 19.651 28.6377 13.2645 34.6635C6.8779 40.6891 8.16601 52.1015 8.22397 52.5844L8.31833 53.3706ZM25.8119 47.9619C21.7491 51.7953 15.0327 51.8863 11.6153 51.6409L21.2062 42.5918L28.3351 44.4417C27.7057 45.7393 26.8837 46.9506 25.8119 47.9619ZM29.1434 42.4391L23.0452 40.8566L30.3093 34.0029C30.3372 36.0719 30.1728 39.3344 29.1434 42.4391ZM28.7505 32.5295L16.7573 43.8452L15.1686 35.8335C19.1882 32.4436 25.4054 32.3092 28.7505 32.5295ZM13.3717 37.782L14.9182 45.5804L10.2347 49.9994C10.2114 46.9658 10.6149 41.6024 13.3717 37.782Z" fill="#64D370"/>
<path d="M43.0415 11.2313C43.0415 8.46707 41.9648 5.86802 40.0102 3.91338C38.0567 1.95817 35.4575 0.881348 32.6915 0.881348C31.8299 0.881348 30.9735 0.988131 30.1463 1.19841L30.6742 3.27368C31.3289 3.10708 32.0077 3.02272 32.6915 3.02272C34.8852 3.02272 36.9463 3.87655 38.4956 5.42718C40.0461 6.97768 40.9001 9.03896 40.9001 11.2313V19.3928H30.6216V11.2317C30.6216 5.52469 25.9786 0.881776 20.2716 0.881776C14.5646 0.881776 9.92167 5.52469 9.92167 11.2317V19.3928H0V59.1508C0 62.1028 2.40147 64.5042 5.35342 64.5042H45.1829C48.1348 64.5042 50.5363 62.1028 50.5363 59.1508V19.3928H43.0415V11.2313ZM12.063 11.2319C12.063 6.70558 15.7453 3.02329 20.2716 3.02329C24.7979 3.02329 28.4802 6.70558 28.4802 11.2319V19.3929H24.483V11.2314C24.483 10.223 24.6633 9.24082 25.0189 8.31246L23.0191 7.54657C22.5696 8.72032 22.3416 9.96017 22.3416 11.2314V19.3929H12.063V11.2319ZM38.4019 59.1508C38.4019 60.922 36.961 62.3629 35.1898 62.3629H5.35342C3.58222 62.3629 2.14137 60.922 2.14137 59.1508V21.5341H38.4019V59.1508ZM45.1829 62.3629H41.3213L44.4691 56.8767L47.2047 61.6442C46.6524 62.0932 45.9486 62.3629 45.1829 62.3629ZM43.3984 21.5341V27.6013H45.5397V21.5341H48.3949V59.1508C48.3949 59.2339 48.3908 59.316 48.3845 59.3975L45.5397 54.4399V30.4565H43.3984V54.4399L40.5361 59.4286C40.5408 59.3365 40.5432 59.244 40.5432 59.1508V21.5341H43.3984Z" fill="#64D370"/>
</svg>
