<svg width="66" height="66" viewBox="0 0 66 66" fill="none" xmlns="http://www.w3.org/2000/svg">
<path d="M33 65.75C14.9411 65.75 0.25 51.0589 0.25 33C0.25 14.9411 14.9411 0.25 33 0.25C51.0589 0.25 65.75 14.9411 65.75 33C65.75 51.0589 51.0589 65.75 33 65.75ZM33 3.875C16.9395 3.875 3.875 16.9395 3.875 33C3.875 49.0605 16.9395 62.125 33 62.125C49.0605 62.125 62.125 49.0605 62.125 33C62.125 16.9395 49.0605 3.875 33 3.875Z" fill="#64D370" stroke="#E5E5E5" stroke-width="0.5"/>
<path d="M46.1581 50.0934L46.1575 50.0928L31.72 35.6553C31.3791 35.3144 31.1885 34.8528 31.1885 34.3748V15.1245C31.1885 14.1241 32.0005 13.312 33.001 13.312C34.0014 13.312 34.8135 14.1241 34.8135 15.1245V33.5193V33.6229L34.8867 33.6961L48.7194 47.5289C49.4275 48.2369 49.4275 49.3848 48.7194 50.0928L48.7189 50.0934C48.3662 50.4483 47.9032 50.6248 47.4385 50.6248C46.9737 50.6248 46.5108 50.4483 46.1581 50.0934Z" fill="#64D370" stroke="#E5E5E5" stroke-width="0.5"/>
</svg>
