<svg width="54" height="45" viewBox="0 0 54 45" fill="none" xmlns="http://www.w3.org/2000/svg">
<path d="M46.0285 22.792L45.969 22.8724L46.0285 22.7919C45.6682 22.5258 45.592 22.018 45.8582 21.6577C47.3643 19.6197 47.9715 17.0321 47.5236 14.5581C47.1119 12.2845 45.7827 10.4831 43.5642 9.16429C41.3491 7.84745 38.2474 7.01116 34.2822 6.65772L34.2733 6.75732L34.2822 6.65772C26.9528 6.00452 19.0004 7.23104 15.9235 7.78811C8.70215 9.09555 3.891 16.0341 5.19843 23.2554C6.50584 30.4767 13.4443 35.2879 20.6656 33.9804C24.0869 33.361 26.5634 31.7586 29.1667 30.0742L29.1729 30.0702C32.1813 28.1238 35.2784 26.1205 40.1129 25.2452C40.3945 25.1943 40.6763 25.1295 40.951 25.0528C41.3819 24.9324 41.8298 25.1843 41.9503 25.6155C42.0708 26.0469 41.8189 26.4943 41.3875 26.6148C41.0645 26.705 40.7329 26.7812 40.4018 26.8411C35.8853 27.6589 32.9152 29.5806 30.0571 31.4299L30.054 31.4319C27.289 33.221 24.6932 34.8994 20.9546 35.5763C15.4089 36.5804 10.0119 34.3673 6.68797 30.272L6.51326 30.359C8.18561 37.1105 14.8619 41.5034 21.8002 40.2472C25.2215 39.6278 27.698 38.0254 30.3013 36.341L30.3075 36.337C33.3159 34.3905 36.413 32.3873 41.2475 31.512C46.2372 30.6086 49.5615 25.8145 48.6581 20.8247L48.5952 20.4773L48.536 20.1503L48.4049 20.4557C48.0778 21.2177 47.6623 21.9456 47.1627 22.6218C46.8965 22.9819 46.3887 23.0583 46.0285 22.792ZM34.4261 5.04211C38.3367 5.39066 41.5232 6.21919 43.902 7.49959C46.842 9.08208 48.5927 11.3594 49.1195 14.2691L50.2541 20.5358C51.3168 26.4052 47.406 32.0453 41.5365 33.108C37.0199 33.9257 34.0499 35.8474 31.1917 37.6967L31.1886 37.6988C28.4236 39.4878 25.8279 41.1663 22.0892 41.8432C13.988 43.3099 6.20376 37.9123 4.73702 29.811L3.60243 23.5443C2.1357 15.4431 7.53333 7.65877 15.6345 6.19204C18.7801 5.62254 26.9037 4.37163 34.4261 5.04211Z" fill="#020202" stroke="#F5FAFF" stroke-width="0.2"/>
<path d="M45.2547 23.636C45.5123 23.9975 45.4309 24.4982 45.0743 24.76L45.0741 24.7602C44.9708 24.8364 44.8557 24.8845 44.7375 24.9059C44.4445 24.9589 44.1335 24.8481 43.9431 24.5939C43.6747 24.2355 43.7477 23.7272 44.1062 23.4587L44.1063 23.4586C44.1124 23.4541 44.1185 23.4496 44.1229 23.4465L44.1229 23.4465L44.1237 23.4459C44.4883 23.1861 44.9948 23.2712 45.2547 23.636ZM45.2547 23.636L45.3359 23.5781L45.2547 23.636Z" fill="#020202" stroke="#F5FAFF" stroke-width="0.2"/>
<path d="M14.0711 18.0156C13.6711 15.8063 15.3283 13.6332 17.7892 13.1877C20.2501 12.7421 22.5639 14.1962 22.9639 16.4056C23.3639 18.6149 21.7069 20.788 19.2459 21.2335C16.785 21.6791 14.4711 20.225 14.0711 18.0156ZM15.6671 17.7266C15.9121 19.0797 17.4011 19.9191 18.9569 19.6375C20.5127 19.3558 21.6129 18.0476 21.3679 16.6944C21.1229 15.3413 19.6339 14.5019 18.0781 14.7836C16.5223 15.0652 15.4221 16.3736 15.6671 17.7266Z" fill="#020202" stroke="#F5FAFF" stroke-width="0.2"/>
</svg>
