<svg width="34" height="51" viewBox="0 0 34 51" fill="none" xmlns="http://www.w3.org/2000/svg">
<path fill-rule="evenodd" clip-rule="evenodd" d="M14.8866 1.98651C15.7451 1.21464 16.8373 0.742989 18.0294 0.655441C19.4397 0.551722 20.8033 1.00241 21.8735 1.92586C22.9438 2.84943 23.5888 4.13203 23.6921 5.54192C23.7209 5.93652 23.6353 6.80926 22.3447 10.0814C21.8805 11.2585 21.3869 12.4246 21.0159 13.2815L20.7941 13.7938L21.3277 13.958C23.8095 14.7217 25.9737 16.4818 27.1697 19.0056C28.4506 21.7084 30.6809 28.77 32.02 35.4271C32.7665 39.1382 33.1389 42.2031 33.1368 44.5455C33.1354 46.1291 32.9576 47.3456 32.6233 48.2343C32.2927 49.1134 31.82 49.6465 31.2289 49.9266C30.6379 50.2067 29.926 50.235 29.0362 49.9342C28.1367 49.6301 27.0826 48.9974 25.856 47.9957C24.0417 46.5141 21.9054 44.2851 19.5058 41.3573C15.2014 36.1055 11.1481 29.9078 9.86735 27.2049C8.67133 24.6811 8.67939 21.8916 9.65997 19.4872L9.87078 18.9702L9.33382 18.8175C8.43583 18.5619 7.22098 18.2057 6.01558 17.8196C2.66577 16.7465 1.93614 16.2601 1.64922 15.9882C0.623099 15.0154 0.0388916 13.7038 0.00187134 12.2906C-0.0351966 10.8776 0.479457 9.53682 1.45277 8.51096C2.27536 7.64379 3.33199 7.09701 4.47298 6.92144L4.98988 6.84191L4.88721 6.3291C4.42194 4.00519 5.57418 1.56913 7.8103 0.509445C10.0466 -0.550301 12.6619 0.100379 14.1659 1.932L14.4978 2.33614L14.8866 1.98651ZM15.8939 13.8876L15.4923 14.0218C15.13 14.1429 14.7714 14.2861 14.4185 14.4534C14.0731 14.617 13.7422 14.7995 13.4252 14.9983L13.0678 15.2225L12.7867 14.9079C11.4996 13.4676 10.056 11.8427 8.85884 10.4193C8.26039 9.70774 7.72007 9.04243 7.29019 8.47312C6.86752 7.91337 6.52841 7.41652 6.35514 7.05089C5.38358 5.00071 6.26251 2.54342 8.31357 1.57144C10.3648 0.599389 12.8234 1.47495 13.795 3.52519C13.9732 3.90118 14.15 4.50439 14.3224 5.21257C14.4977 5.93301 14.6775 6.80163 14.8541 7.73289C15.2075 9.5959 15.5523 11.7299 15.8277 13.4694L15.8939 13.8876ZM2.46867 15.1458L2.45761 15.1353C1.66106 14.3801 1.20546 13.3573 1.17676 12.2599C1.14798 11.1624 1.54946 10.1166 2.30542 9.3198C3.09095 8.49208 4.158 8.03643 5.28376 8.0356L5.55478 8.0354L5.70288 8.26237C6.70404 9.79677 8.89055 12.3078 11.8237 15.5935L12.1405 15.9484L11.8018 16.2825C11.3815 16.697 11.0035 17.1466 10.6711 17.6244L10.4682 17.9159L10.1262 17.8204C7.95319 17.2137 6.18686 16.6605 4.90527 16.2114C4.26503 15.987 3.74092 15.7869 3.34546 15.6176C2.97356 15.4583 2.65489 15.302 2.48036 15.1556L2.46867 15.1458ZM22.3377 42.8714L21.8954 42.3731L25.5403 40.6458C25.8336 40.5068 25.9586 40.1564 25.8196 39.8631C25.6807 39.5699 25.3303 39.4448 25.037 39.5838L21.1064 41.4465L20.8584 41.1488C20.7123 40.9736 20.5648 40.7955 20.4147 40.6123C16.19 35.4577 12.2045 29.3925 10.9294 26.7016C8.94599 22.5161 10.7368 17.4986 14.9219 15.5153C19.1071 13.5319 24.1242 15.3234 26.1077 19.5087C27.383 22.1995 29.5536 29.1248 30.868 35.6587C31.794 40.2624 32.0397 43.3742 31.9422 45.4011C31.8935 46.4134 31.7583 47.1755 31.5672 47.7251C31.3843 48.2511 31.1159 48.6797 30.7257 48.8646C30.3766 49.03 29.9413 48.9946 29.4952 48.8566C29.0324 48.7135 28.4726 48.4342 27.8106 47.9911C26.4851 47.1039 24.6842 45.5154 22.3377 42.8714ZM22.5207 5.63325L22.5208 5.64837C22.5238 5.878 22.4434 6.22489 22.331 6.61549C22.2117 7.03023 22.0348 7.56358 21.803 8.20187C21.3392 9.47955 20.6488 11.1972 19.7424 13.2634L19.5997 13.5887L19.2456 13.561C18.6731 13.5163 18.0939 13.5234 17.5148 13.584L17.0434 13.6333L16.969 13.1651C16.318 9.06799 15.7239 5.60565 15.1457 3.78817L15.0635 3.5296L15.2354 3.31972C15.9489 2.44882 16.9773 1.91128 18.1154 1.82759C19.2108 1.74703 20.2743 2.09849 21.1056 2.81572C21.9363 3.5323 22.4399 4.53234 22.5196 5.61817L22.5207 5.63325Z" fill="#020202"/>
<path d="M17.2033 23.0152C17.4965 22.8762 17.8469 23.0013 17.9859 23.2946C18.1249 23.5878 17.9998 23.9382 17.7065 24.0772L14.229 25.7252C13.9357 25.8642 13.5853 25.7391 13.4463 25.4458C13.3074 25.1525 13.4324 24.8022 13.7257 24.6632L17.2033 23.0152Z" fill="#020202"/>
<path d="M20.2448 30.363L25.8093 27.726C26.1025 27.587 26.4529 27.7121 26.5919 28.0054C26.7309 28.2986 26.6058 28.649 26.3125 28.788L20.7481 31.425C20.4548 31.5639 20.1044 31.4389 19.9654 31.1456C19.8264 30.8523 19.9515 30.5019 20.2448 30.363Z" fill="#020202"/>
</svg>
