<svg width="40" height="40" viewBox="0 0 40 40" fill="none" xmlns="http://www.w3.org/2000/svg">
<path d="M31.035 14.905C30.3766 14.905 29.8828 15.4287 29.8828 16.0572C29.8828 16.6707 30.3766 17.2094 31.035 17.2094C31.6634 17.2094 32.1871 16.7006 32.1871 16.0572C32.1871 15.4138 31.6634 14.905 31.035 14.905Z" fill="#020202"/>
<path d="M7.27594 11.1025C6.67741 11.1025 6.22852 11.5814 6.22852 12.135C6.22852 12.6886 6.67741 13.1675 7.27594 13.1675C7.84454 13.1675 8.3084 12.7036 8.3084 12.135C8.3084 11.5664 7.84454 11.1025 7.27594 11.1025Z" fill="#020202"/>
<path d="M39.3351 23.2636L39.3357 23.2669C39.3697 23.4713 39.3259 23.6961 39.2031 23.9055C39.0456 24.1633 38.8483 24.2436 38.4412 24.4094L38.4256 24.4158L38.4256 24.4158L38.4214 24.4176C33.6763 26.4512 27.6501 26.0012 22.543 24.9857C17.7864 24.0286 14.0977 22.6195 13.5918 22.4263C13.5706 22.4182 13.555 22.4122 13.5452 22.4085C12.0887 21.8491 10.6814 21.6801 9.3399 21.9134C7.99797 22.1468 6.73756 22.78 5.57106 23.8006C4.28429 24.919 3.4452 26.2326 3.03595 26.9299L2.96048 27.0585L3.03774 27.186C4.61885 29.7956 6.87713 31.1933 9.76617 31.3014L9.76746 31.3015C10.957 31.3399 12.0398 31.152 12.8256 30.9536C13.2191 30.8543 13.5396 30.7519 13.7639 30.673C13.876 30.6335 13.9645 30.5998 14.0263 30.575C14.0571 30.5627 14.082 30.5523 14.1003 30.5443C14.1092 30.5404 14.1179 30.5365 14.1255 30.5329C14.128 30.5317 14.1314 30.5301 14.1353 30.5281C14.6567 30.3029 15.2606 30.6283 15.3655 31.1875L15.3656 31.1882C15.8975 33.9805 15.5454 36.0591 14.3736 37.4433C13.041 39.0025 11.1182 39.0763 10.8229 39.0763C10.6472 39.0763 10.4961 39.0305 10.3516 38.9464C10.2001 38.8554 8.31186 37.7043 6.24453 35.6943C4.16805 33.6753 1.92996 30.8082 1.07034 27.2963C0.0707441 23.2096 0.802725 18.5724 3.93122 14.3519L3.93164 14.3513C4.25655 13.9104 4.89975 13.8705 5.28933 14.2601C5.60471 14.5755 5.64125 15.0652 5.37008 15.4307L5.36944 15.4315C3.089 18.5329 2.49311 21.564 2.47785 23.8077L2.47309 24.5077L2.92019 23.9691C4.53821 22.0201 6.38117 20.8221 8.30308 20.3044C10.2246 19.7868 12.2416 19.9447 14.2165 20.7347C14.2994 20.7678 18.1008 22.255 22.9695 23.2167L23.4358 23.3088L23.2475 22.8724C22.1078 20.2304 21.609 17.599 21.9469 15.1955C22.2839 12.7982 23.455 10.6113 25.6868 8.84781L26.0792 8.53774L25.5957 8.40995C23.4687 7.8478 21.1806 7.71243 18.9595 7.87862C17.1026 8.01451 14.9366 8.40708 13.1858 9.09218L13.1849 9.09254C12.4464 9.38485 11.7429 9.76805 10.9105 10.3129L10.9105 10.3129L10.9087 10.314C10.8794 10.3336 10.8514 10.3505 10.819 10.37C10.8081 10.3766 10.7967 10.3834 10.7846 10.3908C10.7422 10.4166 10.6924 10.4478 10.644 10.4857C10.2973 10.7244 9.82202 10.6789 9.51837 10.3752L9.51838 10.3752L9.51579 10.3727C9.10914 9.97763 9.17534 9.3117 9.64555 8.99387C9.64572 8.99376 9.64588 8.99364 9.64605 8.99353L9.91286 8.81566C9.91306 8.81553 9.91327 8.81539 9.91347 8.81526C11.5042 7.76955 12.8824 7.1384 15.171 6.6364L15.4994 6.56434L15.3358 6.27056C14.6483 5.0361 13.4565 3.63758 10.6687 3.0061L10.6687 3.00602L10.6625 3.00478C9.78608 2.8295 9.66766 1.58967 10.5616 1.27125C14.3167 -0.0294988 18.1138 -0.0591411 21.2716 2.19645L21.2718 2.19656C23.0528 3.46666 24.1374 5.14945 24.7258 6.2968L24.7813 6.40506L24.9008 6.42817C33.4296 8.07796 38.014 14.6093 39.3351 23.2636ZM17.256 6.09594L17.3342 6.25963L17.514 6.23608C18.7582 6.07315 20.3282 5.96953 22.0453 6.07315L22.5759 6.10517L22.2622 5.67605C20.9245 3.84633 18.5288 1.88449 14.5733 2.2077L13.8736 2.26488L14.452 2.66283C16.03 3.74862 16.7846 5.10899 17.256 6.09594ZM13.7956 32.8737L13.7733 32.5714L13.4807 32.6508C11.0973 33.2982 8.55176 33.3088 6.27924 32.3765L5.9928 32.7684C7.95969 35.1136 10.1962 36.7002 10.9854 37.2162L11.0649 37.2682L11.1589 37.2543C11.5878 37.1907 12.4232 36.9818 13.0343 36.2551L13.0357 36.2534C13.6641 35.4928 13.9023 34.3227 13.7956 32.8737ZM25.5659 23.5535L25.626 23.6655L25.7518 23.683C29.4312 24.1936 33.7317 24.2901 37.2627 22.9355L37.4575 22.8608L37.4189 22.6558C36.3332 16.8955 33.6381 11.8683 28.3008 9.38267L28.1809 9.32684L28.0673 9.39452C25.9152 10.6766 24.5193 12.3398 23.9446 14.3742C22.9431 17.9025 24.5749 21.7067 25.5659 23.5535Z" fill="#020202" stroke="#F5FAFF" stroke-width="0.5"/>
</svg>
