<svg width="38" height="55" viewBox="0 0 38 55" fill="none" xmlns="http://www.w3.org/2000/svg">
<path d="M9.49239 19.9278C9.6437 19.8705 9.76607 19.7555 9.83257 19.608C9.89906 19.4605 9.90424 19.2926 9.84697 19.1413L9.77499 18.9511C9.71771 18.7998 9.60268 18.6775 9.45518 18.611C9.30769 18.5445 9.13982 18.5393 8.9885 18.5965C8.83719 18.6538 8.71482 18.7689 8.64832 18.9164C8.58183 19.0638 8.57665 19.2317 8.63392 19.383L8.7059 19.5732C8.76318 19.7245 8.87821 19.8469 9.02571 19.9134C9.1732 19.9799 9.34107 19.9851 9.49239 19.9278Z" fill="black"/>
<path d="M13.7395 31.1486C13.8908 31.0914 14.0131 30.9763 14.0796 30.8288C14.1461 30.6813 14.1513 30.5135 14.094 30.3622L10.7828 21.614C10.7255 21.4627 10.6105 21.3403 10.463 21.2738C10.3155 21.2073 10.1476 21.2021 9.99632 21.2594C9.845 21.3167 9.72263 21.4317 9.65614 21.5792C9.58964 21.7267 9.58446 21.8946 9.64173 22.0459L12.953 30.7941C13.0103 30.9454 13.1253 31.0677 13.2728 31.1342C13.4203 31.2007 13.5881 31.2059 13.7395 31.1486Z" fill="black"/>
<path d="M21.2824 53.9493L34.5948 48.9104C35.25 48.6616 35.7797 48.163 36.0678 47.5241C36.3559 46.8852 36.3787 46.1581 36.1314 45.5023L23.4623 12.031C23.0727 11.0056 22.3039 10.1691 21.315 9.69465C20.326 9.22016 19.1925 9.14395 18.1489 9.48178L17.4992 7.76533L17.8795 7.62136C18.0309 7.56409 18.1532 7.44905 18.2197 7.30155C18.2862 7.15406 18.2914 6.98619 18.2341 6.83488L17.0824 3.79203C16.8335 3.13685 16.335 2.60713 15.696 2.31908C15.0571 2.03102 14.33 2.00816 13.6743 2.2555L6.06717 5.13485C5.41199 5.3837 4.88227 5.88228 4.59422 6.52119C4.30616 7.16011 4.2833 7.8872 4.53064 8.54295L5.68238 11.5858C5.73966 11.7371 5.85469 11.8595 6.00219 11.926C6.14968 11.9925 6.31755 11.9977 6.46887 11.9404L6.84922 11.7964L7.49891 13.5129C6.49318 13.9507 5.69422 14.7584 5.26728 15.7688C4.84035 16.7792 4.81811 17.9151 5.20517 18.9414L17.8743 52.4127C18.1231 53.0679 18.6217 53.5976 19.2606 53.8857C19.8996 54.1737 20.6266 54.1966 21.2824 53.9493ZM5.67171 8.11105C5.53849 7.75795 5.55079 7.36643 5.7059 7.02239C5.86101 6.67835 6.14626 6.40989 6.49907 6.27592L14.1062 3.39657C14.4593 3.26335 14.8508 3.27565 15.1948 3.43076C15.5389 3.58587 15.8073 3.87112 15.9413 4.22393L16.8771 6.69625L6.6075 10.5834L5.67171 8.11105ZM16.3581 8.19723L17.006 9.90883L8.63814 13.0761L7.99029 11.3645L16.3581 8.19723ZM6.34624 18.5095C6.06083 17.7529 6.0872 16.9139 6.41957 16.1767C6.75194 15.4395 7.36317 14.8642 8.11916 14.5771L18.3888 10.69C19.1454 10.4046 19.9844 10.4309 20.7216 10.7633C21.4588 11.0957 22.0341 11.7069 22.3212 12.4629L25.5416 20.9711L17.1365 24.1525C16.9852 24.2097 16.8628 24.3248 16.7963 24.4723C16.7298 24.6198 16.7246 24.7876 16.7819 24.939L17.7656 27.5379C17.8229 27.6892 17.9379 27.8116 18.0854 27.8781C18.2329 27.9446 18.4008 27.9498 18.5521 27.8925C18.7034 27.8352 18.8258 27.7202 18.8923 27.5727C18.9588 27.4252 18.964 27.2573 18.9067 27.106L18.1389 25.0776L25.9735 22.1121L31.3089 36.2081L23.4743 39.1736L20.7063 31.8605C20.649 31.7092 20.534 31.5868 20.3865 31.5203C20.239 31.4538 20.0711 31.4486 19.9198 31.5059C19.7685 31.5632 19.6461 31.6782 19.5796 31.8257C19.5131 31.9732 19.5079 32.1411 19.5652 32.2924L22.5492 40.176C22.6065 40.3273 22.7215 40.4497 22.869 40.5162C23.0165 40.5827 23.1844 40.5879 23.3357 40.5306L31.7408 37.3492L34.9903 45.9342C35.1235 46.2873 35.1112 46.6788 34.9561 47.0229C34.801 47.3669 34.5158 47.6354 34.1629 47.7693L20.8505 52.8082C20.4974 52.9414 20.1059 52.9291 19.7618 52.774C19.4178 52.6189 19.1493 52.3336 19.0154 51.9808L6.34624 18.5095Z" fill="black"/>
</svg>
