<svg width="64" height="64" viewBox="0 0 64 64" fill="none" xmlns="http://www.w3.org/2000/svg">
<path d="M30.2866 2.02897C25.3243 2.27361 20.5022 3.75632 16.2598 6.34196C12.0173 8.92759 8.48948 12.5339 5.99781 16.8322C3.50613 21.1305 2.12987 25.9841 1.99446 30.9505C1.85905 35.9169 2.9688 40.8383 5.22256 45.266L2.06356 60.6C2.02425 60.7905 2.0336 60.988 2.09074 61.174C2.14788 61.36 2.25098 61.5286 2.3905 61.6642C2.53003 61.7999 2.70148 61.8981 2.88903 61.95C3.07658 62.0019 3.27417 62.0056 3.46356 61.961L18.4916 58.4C22.5641 60.4253 27.0466 61.4902 31.5949 61.5129C36.1432 61.5356 40.6361 60.5155 44.7286 58.5309C48.8212 56.5464 52.4043 53.6501 55.2029 50.0647C58.0015 46.4793 59.9411 42.3002 60.8726 37.8482C61.8041 33.3963 61.7028 28.7901 60.5765 24.3835C59.4501 19.9768 57.3287 15.887 54.3751 12.4281C51.4216 8.96921 47.7145 6.23333 43.5387 4.43061C39.3629 2.6279 34.8294 1.80631 30.2866 2.02897Z" stroke="white" stroke-width="2" stroke-miterlimit="10" stroke-linecap="round" stroke-linejoin="round"/>
<path d="M46.1845 38.205L40.4195 36.55C40.0474 36.4434 39.6535 36.4393 39.2793 36.538C38.9051 36.6368 38.5645 36.8347 38.2935 37.111L36.8835 38.547C36.5933 38.8441 36.2215 39.0485 35.8151 39.1343C35.4087 39.2201 34.986 39.1834 34.6005 39.029C31.8735 37.929 26.1375 32.829 24.6735 30.275C24.4678 29.9141 24.3737 29.5002 24.4033 29.0858C24.4328 28.6714 24.5846 28.2751 24.8395 27.947L26.0695 26.355C26.3062 26.0488 26.4559 25.6843 26.5025 25.3C26.5492 24.9157 26.4911 24.526 26.3345 24.172L23.9105 18.687C23.7753 18.3813 23.5706 18.1114 23.3127 17.8987C23.0549 17.6859 22.751 17.5363 22.4252 17.4616C22.0993 17.387 21.7606 17.3894 21.4358 17.4686C21.1111 17.5478 20.8093 17.7017 20.5545 17.918C18.9455 19.279 17.0375 21.346 16.8055 23.637C16.3965 27.676 18.1285 32.767 24.6775 38.879C32.2435 45.942 38.3035 46.879 42.2485 45.919C44.4865 45.377 46.2745 43.205 47.4025 41.426C47.5821 41.1441 47.6934 40.8241 47.7278 40.4916C47.7621 40.1591 47.7184 39.8231 47.6001 39.5105C47.4819 39.1978 47.2924 38.917 47.0466 38.6904C46.8009 38.4638 46.5057 38.2976 46.1845 38.205Z" fill="white" stroke="white" stroke-width="2" stroke-miterlimit="10" stroke-linecap="round" stroke-linejoin="round"/>
</svg>
