<svg width="70" height="70" viewBox="0 0 70 70" fill="none" xmlns="http://www.w3.org/2000/svg">
<path d="M24.4924 25.9279C24.6437 25.8706 24.7661 25.7556 24.8326 25.6081C24.8991 25.4606 24.9042 25.2927 24.847 25.1414L24.775 24.9513C24.7177 24.7999 24.6027 24.6776 24.4552 24.6111C24.3077 24.5446 24.1398 24.5394 23.9885 24.5967C23.8372 24.6539 23.7148 24.769 23.6483 24.9165C23.5818 25.064 23.5766 25.2318 23.6339 25.3832L23.7059 25.5733C23.7632 25.7246 23.8782 25.847 24.0257 25.9135C24.1732 25.98 24.3411 25.9852 24.4924 25.9279Z" fill="black"/>
<path d="M28.7395 37.1485C28.8908 37.0912 29.0131 36.9762 29.0796 36.8287C29.1461 36.6812 29.1513 36.5134 29.094 36.362L25.7828 27.6139C25.7255 27.4625 25.6105 27.3402 25.463 27.2737C25.3155 27.2072 25.1476 27.202 24.9963 27.2593C24.845 27.3165 24.7226 27.4316 24.6561 27.5791C24.5896 27.7266 24.5845 27.8944 24.6417 28.0458L27.953 36.7939C28.0103 36.9453 28.1253 37.0676 28.2728 37.1341C28.4203 37.2006 28.5881 37.2058 28.7395 37.1485Z" fill="black"/>
<path d="M36.2824 59.9493L49.5948 54.9104C50.25 54.6616 50.7797 54.163 51.0678 53.5241C51.3559 52.8852 51.3787 52.1581 51.1314 51.5023L38.4623 18.031C38.0727 17.0056 37.3039 16.1691 36.315 15.6946C35.326 15.2202 34.1925 15.144 33.1489 15.4818L32.4992 13.7653L32.8795 13.6214C33.0309 13.5641 33.1532 13.449 33.2197 13.3016C33.2862 13.1541 33.2914 12.9862 33.2341 12.8349L32.0824 9.79203C31.8335 9.13685 31.335 8.60713 30.696 8.31908C30.0571 8.03102 29.33 8.00816 28.6743 8.2555L21.0672 11.1348C20.412 11.3837 19.8823 11.8823 19.5942 12.5212C19.3062 13.1601 19.2833 13.8872 19.5306 14.5429L20.6824 17.5858C20.7397 17.7371 20.8547 17.8595 21.0022 17.926C21.1497 17.9925 21.3176 17.9977 21.4689 17.9404L21.8492 17.7964L22.4989 19.5129C21.4932 19.9507 20.6942 20.7584 20.2673 21.7688C19.8404 22.7792 19.8181 23.9151 20.2052 24.9414L32.8743 58.4127C33.1231 59.0679 33.6217 59.5976 34.2606 59.8857C34.8996 60.1737 35.6266 60.1966 36.2824 59.9493ZM20.6717 14.111C20.5385 13.758 20.5508 13.3664 20.7059 13.0224C20.861 12.6783 21.1463 12.4099 21.4991 12.2759L29.1062 9.39657C29.4593 9.26335 29.8508 9.27565 30.1948 9.43076C30.5389 9.58587 30.8073 9.87112 30.9413 10.2239L31.8771 12.6962L21.6075 16.5834L20.6717 14.111ZM31.3581 14.1972L32.006 15.9088L23.6381 19.0761L22.9903 17.3645L31.3581 14.1972ZM21.3462 24.5095C21.0608 23.7529 21.0872 22.9139 21.4196 22.1767C21.7519 21.4395 22.3632 20.8642 23.1192 20.5771L33.3888 16.69C34.1454 16.4046 34.9844 16.4309 35.7216 16.7633C36.4588 17.0957 37.0341 17.7069 37.3212 18.4629L40.5416 26.9711L32.1365 30.1525C31.9852 30.2097 31.8628 30.3248 31.7963 30.4723C31.7298 30.6198 31.7246 30.7876 31.7819 30.939L32.7656 33.5379C32.8229 33.6892 32.9379 33.8116 33.0854 33.8781C33.2329 33.9446 33.4008 33.9498 33.5521 33.8925C33.7034 33.8352 33.8258 33.7202 33.8923 33.5727C33.9588 33.4252 33.964 33.2573 33.9067 33.106L33.1389 31.0776L40.9735 28.1121L46.3089 42.2081L38.4743 45.1736L35.7063 37.8605C35.649 37.7092 35.534 37.5868 35.3865 37.5203C35.239 37.4538 35.0711 37.4486 34.9198 37.5059C34.7685 37.5632 34.6461 37.6782 34.5796 37.8257C34.5131 37.9732 34.5079 38.1411 34.5652 38.2924L37.5492 46.176C37.6065 46.3273 37.7215 46.4497 37.869 46.5162C38.0165 46.5827 38.1844 46.5879 38.3357 46.5306L46.7408 43.3492L49.9903 51.9342C50.1235 52.2873 50.1112 52.6788 49.9561 53.0229C49.801 53.3669 49.5158 53.6354 49.1629 53.7693L35.8505 58.8082C35.4974 58.9414 35.1059 58.9291 34.7618 58.774C34.4178 58.6189 34.1493 58.3336 34.0154 57.9808L21.3462 24.5095Z" fill="black"/>
</svg>
