<svg width="70" height="70" viewBox="0 0 70 70" fill="none" xmlns="http://www.w3.org/2000/svg">
<path d="M13.0595 41C12.7662 41 12.5195 40.9 12.3195 40.7C12.1195 40.5 12.0195 40.2533 12.0195 39.96V26.42C12.0195 26.1133 12.1195 25.8667 12.3195 25.68C12.5195 25.48 12.7662 25.38 13.0595 25.38C13.3662 25.38 13.6129 25.48 13.7995 25.68C13.9995 25.8667 14.0995 26.1133 14.0995 26.42V32.16H16.1595L21.5395 25.72C21.7262 25.4933 21.9662 25.38 22.2595 25.38C22.5662 25.3667 22.8129 25.4667 22.9995 25.68C23.1862 25.8933 23.2729 26.12 23.2595 26.36C23.2595 26.5867 23.1662 26.8067 22.9795 27.02L17.9195 32.9L23.4995 39.38C23.6862 39.5933 23.7862 39.82 23.7995 40.06C23.8262 40.2867 23.7262 40.5133 23.4995 40.74C23.3129 40.9267 23.0595 41.0133 22.7395 41C22.4195 41 22.1662 40.8933 21.9795 40.68L16.2395 34H14.0995V39.96C14.0995 40.2533 13.9995 40.5 13.7995 40.7C13.6129 40.9 13.3662 41 13.0595 41ZM26.803 41.02C26.5096 41.02 26.2763 40.9267 26.103 40.74C25.9296 40.54 25.843 40.2933 25.843 40V31.08C25.843 30.7733 25.9296 30.5267 26.103 30.34C26.2763 30.1533 26.5096 30.06 26.803 30.06C27.1096 30.06 27.3563 30.1533 27.543 30.34C27.743 30.5267 27.843 30.7733 27.843 31.08V34.42H29.363L32.983 30.38C33.1563 30.1933 33.3963 30.0867 33.703 30.06C34.023 30.0333 34.2696 30.1 34.443 30.26C34.643 30.4467 34.7563 30.66 34.783 30.9C34.8096 31.1267 34.7363 31.3333 34.563 31.52L30.943 35.4L34.783 39.52C34.9563 39.6933 35.043 39.9 35.043 40.14C35.043 40.3667 34.9363 40.5733 34.723 40.76C34.5496 40.92 34.303 41 33.983 41C33.6763 40.9867 33.4363 40.8933 33.263 40.72L29.143 36.3H27.843V40C27.843 40.2933 27.743 40.54 27.543 40.74C27.3563 40.9267 27.1096 41.02 26.803 41.02ZM41.1061 41.08C40.1328 41.08 39.2594 40.84 38.4861 40.36C37.7128 39.8667 37.0994 39.2067 36.6461 38.38C36.2061 37.54 35.9861 36.5933 35.9861 35.54C35.9861 34.4867 36.2261 33.54 36.7061 32.7C37.1994 31.86 37.8594 31.2 38.6861 30.72C39.5261 30.2267 40.4661 29.98 41.5061 29.98C42.5461 29.98 43.4794 30.2267 44.3061 30.72C45.1328 31.2 45.7861 31.86 46.2661 32.7C46.7594 33.54 47.0061 34.4867 47.0061 35.54V40C47.0061 40.2933 46.9061 40.54 46.7061 40.74C46.5194 40.9267 46.2794 41.02 45.9861 41.02C45.6928 41.02 45.4461 40.9267 45.2461 40.74C45.0594 40.54 44.9661 40.2933 44.9661 40V39.26C44.4994 39.82 43.9328 40.2667 43.2661 40.6C42.6128 40.92 41.8928 41.08 41.1061 41.08ZM41.5061 39.28C42.1861 39.28 42.7928 39.12 43.3261 38.8C43.8594 38.4667 44.2794 38.02 44.5861 37.46C44.8928 36.8867 45.0461 36.2467 45.0461 35.54C45.0461 34.82 44.8928 34.18 44.5861 33.62C44.2794 33.0467 43.8594 32.6 43.3261 32.28C42.7928 31.9467 42.1861 31.78 41.5061 31.78C40.8394 31.78 40.2328 31.9467 39.6861 32.28C39.1528 32.6 38.7261 33.0467 38.4061 33.62C38.0994 34.18 37.9461 34.82 37.9461 35.54C37.9461 36.2467 38.0994 36.8867 38.4061 37.46C38.7261 38.02 39.1528 38.4667 39.6861 38.8C40.2328 39.12 40.8394 39.28 41.5061 39.28ZM54.1422 30.08C54.5555 30.08 54.8622 30.3 55.0622 30.74L59.1822 39.68C59.3022 39.9467 59.3155 40.1867 59.2222 40.4C59.1289 40.6 58.9689 40.7533 58.7422 40.86C58.1555 41.1267 57.7222 40.9933 57.4422 40.46L54.1822 33.06L50.8222 40.46C50.7022 40.7133 50.5222 40.88 50.2822 40.96C50.0555 41.0267 49.8022 40.9933 49.5222 40.86C49.2689 40.74 49.0889 40.58 48.9822 40.38C48.8889 40.18 48.9089 39.9467 49.0422 39.68L53.1822 30.74C53.3822 30.3 53.7022 30.08 54.1422 30.08Z" fill="#020202"/>
</svg>
