<svg width="70" height="70" viewBox="0 0 70 70" fill="none" xmlns="http://www.w3.org/2000/svg">
<path d="M17.1713 24.2167L17.1658 24.2115C16.4173 23.5019 15.9898 22.542 15.9628 21.511L17.1713 24.2167ZM17.1713 24.2167L17.1771 24.2216M17.1713 24.2167L17.1771 24.2216M17.1771 24.2216C17.319 24.3406 17.6034 24.4841 17.98 24.6453C18.3684 24.8116 18.8868 25.0097 19.5241 25.233C20.7992 25.6799 22.5602 26.2316 24.7295 26.8373L24.9006 26.885L25.002 26.7392C25.3432 26.2489 25.7311 25.7875 26.1624 25.3621L26.3317 25.1951L26.1733 25.0176C23.2457 21.7381 21.0436 19.2106 20.0296 17.6566L19.9556 17.5431L19.8201 17.5432C18.7628 17.544 17.7613 17.9715 17.0229 18.7495L17.0229 18.7495M17.1771 24.2216L17.0229 18.7495M17.0229 18.7495C16.3125 19.4982 15.9358 20.4797 15.9628 21.5109L17.0229 18.7495ZM32.5472 9.66371L32.5472 9.66371C34.0236 9.55513 35.4525 10.0274 36.5729 10.9942C37.6935 11.9611 38.3695 13.3053 38.4776 14.7814C38.5112 15.2412 38.4013 16.1654 37.1134 19.4308C36.6478 20.6113 36.1531 21.7801 35.7815 22.6384L35.6706 22.8946L35.9374 22.9767C38.4831 23.76 40.7043 25.5661 41.9317 28.1561L42.1576 28.049L41.9317 28.1561C43.2249 30.8848 45.4601 37.9685 46.8012 44.6354C47.5493 48.3544 47.9251 51.4375 47.9229 53.8033C47.9215 55.4018 47.7425 56.6518 47.3935 57.5799C47.0462 58.5032 46.536 59.0955 45.8721 59.4101C45.2083 59.7247 44.4268 59.7445 43.4923 59.4286C42.5529 59.1111 41.4721 58.458 40.234 57.4469L40.0759 57.6405L40.234 57.4469C38.4016 55.9505 36.2533 53.7074 33.8486 50.7734C29.5378 45.5139 25.4706 39.2983 24.1776 36.5696L23.9517 36.6766L24.1776 36.5695C22.9502 33.9795 22.9588 31.1168 23.9646 28.6504L24.07 28.3919L23.8015 28.3155C22.9021 28.0596 21.6844 27.7026 20.4755 27.3152L20.3992 27.5533L20.4754 27.3152C17.1325 26.2444 16.3477 25.7441 16.0133 25.4272C14.9391 24.4087 14.3268 23.0343 14.2881 21.5548L14.2881 21.5548C14.2493 20.0755 14.7886 18.6705 15.8075 17.5965L15.8075 17.5965C16.6682 16.6892 17.7752 16.116 18.9711 15.9319L19.2295 15.8922L19.1782 15.6358C18.691 13.2023 19.897 10.6512 22.2394 9.54113C24.5819 8.43101 27.3203 9.11292 28.8953 11.0309L29.0612 11.233L29.2556 11.0582C30.1554 10.2492 31.3 9.75531 32.5472 9.66371ZM29.9492 23.0423L30.15 22.9752L30.1169 22.7661C29.8415 21.0266 29.4972 18.896 29.1446 17.0371C28.9683 16.1078 28.7895 15.2438 28.6156 14.5293C28.4432 13.8209 28.2713 13.2403 28.1052 12.8898C27.1929 10.9646 24.8834 10.1419 22.9568 11.055C21.0303 11.9679 20.2048 14.2762 21.1172 16.2014C21.2784 16.5416 21.6033 17.0205 22.0258 17.5801C22.452 18.1444 22.9891 18.806 23.5863 19.516C24.7808 20.9362 26.2221 22.5585 27.5093 23.9989L27.6498 24.1562L27.8285 24.0441C28.1535 23.8403 28.493 23.6531 28.8475 23.485C29.2098 23.3134 29.5777 23.1665 29.9492 23.0423ZM37.1407 51.5712L36.8397 51.7139L37.0608 51.9631C39.4 54.5989 41.1848 56.1702 42.4858 57.0409C43.1359 57.4761 43.6734 57.7419 44.1052 57.8754C44.5287 58.0064 44.8896 58.0219 45.1548 57.8963C45.4521 57.7554 45.6909 57.4078 45.8672 56.9006C46.0477 56.3816 46.1805 55.6453 46.2286 54.6467C46.3248 52.6484 46.083 49.559 45.159 44.9656C43.8466 38.4411 41.6809 31.5381 40.4179 28.8733C38.4936 24.8128 33.6255 23.0746 29.5651 24.9988C25.5048 26.9229 23.7672 31.7914 25.6915 35.8521C26.9542 38.517 30.9255 44.5642 35.1442 49.7115C35.2938 49.894 35.4409 50.0716 35.5865 50.2464L35.7106 50.3952L35.8856 50.3122L39.4661 48.6155C39.8841 48.4174 40.3836 48.5956 40.5817 49.0137C40.7798 49.4317 40.6015 49.9312 40.1835 50.1293L37.1407 51.5712ZM36.807 14.9092L36.8069 14.9016L36.8064 14.8941C36.7316 13.8747 36.2592 12.9361 35.4784 12.2627C34.6974 11.5887 33.6992 11.2588 32.6699 11.3345C31.6002 11.4132 30.635 11.9178 29.9649 12.7358L29.879 12.8407L29.9201 12.97C30.5053 14.8097 31.1023 18.2941 31.752 22.3835L31.7892 22.6176L32.0249 22.5929C32.6192 22.5308 33.2136 22.5235 33.8012 22.5694L33.9782 22.5832L34.0496 22.4206C34.9545 20.3578 35.6427 18.6454 36.1042 17.3742C36.3348 16.7388 36.5098 16.2113 36.6269 15.804C36.7406 15.4087 36.8094 15.0963 36.807 14.9092ZM31.6323 32.0469C32.0504 31.8488 32.5498 32.027 32.7479 32.4451C32.9461 32.8631 32.7678 33.3626 32.3497 33.5607L28.8722 35.2087C28.4541 35.4068 27.9547 35.2285 27.7566 34.8105C27.5585 34.3924 27.7367 33.893 28.1548 33.6949L31.6323 32.0469ZM34.6739 39.3946L40.2383 36.7577C40.6564 36.5596 41.1558 36.7378 41.354 37.1559C41.5521 37.5739 41.3738 38.0734 40.9557 38.2715L35.3912 40.9085C34.9732 41.1066 34.4737 40.9283 34.2756 40.5103C34.0775 40.0922 34.2558 39.5928 34.6739 39.3946Z" fill="black" stroke="#F5FAFF" stroke-width="0.5"/>
</svg>
