<svg width="70" height="70" viewBox="0 0 70 70" fill="none" xmlns="http://www.w3.org/2000/svg">
<path d="M46.036 30.905C45.3776 30.905 44.8838 31.4287 44.8838 32.0572C44.8838 32.6707 45.3776 33.2094 46.036 33.2094C46.6644 33.2094 47.1881 32.7006 47.1881 32.0572C47.1881 31.4138 46.6644 30.905 46.036 30.905Z" fill="#020202"/>
<path d="M22.2779 27.1025C21.6794 27.1025 21.2305 27.5814 21.2305 28.135C21.2305 28.6886 21.6794 29.1675 22.2779 29.1675C22.8465 29.1675 23.3104 28.7036 23.3104 28.135C23.3104 27.5664 22.8465 27.1025 22.2779 27.1025Z" fill="#020202"/>
<path d="M54.3361 39.2636L54.3367 39.2669C54.3707 39.4713 54.3269 39.6961 54.2041 39.9055C54.0466 40.1633 53.8492 40.2436 53.4422 40.4094L53.4265 40.4158L53.4265 40.4158L53.4224 40.4176C48.6772 42.4512 42.6511 42.0012 37.544 40.9857C32.7873 40.0286 29.0987 38.6195 28.5927 38.4263C28.5716 38.4182 28.556 38.4122 28.5461 38.4085C27.0897 37.8491 25.6824 37.6801 24.3409 37.9134C22.999 38.1468 21.7385 38.78 20.572 39.8006C19.2853 40.919 18.4462 42.2326 18.0369 42.9299L17.9615 43.0585L18.0387 43.186C19.6198 45.7956 21.8781 47.1933 24.7671 47.3014L24.7684 47.3015C25.958 47.3399 27.0408 47.152 27.8266 46.9536C28.22 46.8543 28.5406 46.7519 28.7649 46.673C28.877 46.6335 28.9655 46.5998 29.0273 46.575C29.0581 46.5627 29.083 46.5523 29.1013 46.5443C29.1102 46.5404 29.1189 46.5365 29.1265 46.5329C29.129 46.5317 29.1324 46.5301 29.1362 46.5281C29.6577 46.3029 30.2616 46.6283 30.3664 47.1875L30.3666 47.1882C30.8985 49.9805 30.5464 52.0591 29.3745 53.4433C28.042 55.0025 26.1192 55.0763 25.8239 55.0763C25.6482 55.0763 25.4971 55.0305 25.3526 54.9464C25.2011 54.8554 23.3128 53.7043 21.2455 51.6943C19.169 49.6753 16.9309 46.8082 16.0713 43.2963C15.0717 39.2096 15.8037 34.5724 18.9322 30.3519L18.9326 30.3513C19.2575 29.9104 19.9007 29.8705 20.2903 30.2601C20.6057 30.5755 20.6422 31.0652 20.3711 31.4307L20.3704 31.4315C18.09 34.5329 17.4941 37.564 17.4788 39.8077L17.4741 40.5077L17.9212 39.9691C19.5392 38.0201 21.3822 36.8221 23.3041 36.3044C25.2256 35.7868 27.2426 35.9447 29.2175 36.7347C29.3004 36.7678 33.1018 38.255 37.9705 39.2167L38.4368 39.3088L38.2485 38.8724C37.1088 36.2304 36.61 33.599 36.9479 31.1955C37.2849 28.7982 38.456 26.6113 40.6878 24.8478L41.0802 24.5377L40.5967 24.4099C38.4696 23.8478 36.1816 23.7124 33.9605 23.8786C32.1035 24.0145 29.9376 24.4071 28.1868 25.0922L28.1859 25.0925C27.4474 25.3849 26.7438 25.768 25.9115 26.3129L25.9115 26.3129L25.9097 26.314C25.8804 26.3336 25.8524 26.3505 25.82 26.37C25.8091 26.3766 25.7977 26.3834 25.7856 26.3908C25.7432 26.4166 25.6934 26.4478 25.645 26.4857C25.2983 26.7244 24.823 26.6789 24.5193 26.3752L24.5194 26.3752L24.5168 26.3727C24.1101 25.9776 24.1763 25.3117 24.6465 24.9939C24.6467 24.9938 24.6469 24.9936 24.647 24.9935L24.9138 24.8157C24.914 24.8155 24.9142 24.8154 24.9144 24.8153C26.5052 23.7695 27.8834 23.1384 30.1719 22.6364L30.5004 22.5643L30.3368 22.2706C29.6492 21.0361 28.4574 19.6376 25.6697 19.0061L25.6697 19.006L25.6635 19.0048C24.7871 18.8295 24.6686 17.5897 25.5626 17.2712C29.3177 15.9705 33.1148 15.9409 36.2726 18.1964L36.2727 18.1966C38.0538 19.4667 39.1384 21.1494 39.7268 22.2968L39.7823 22.4051L39.9017 22.4282C48.4306 24.078 53.015 30.6093 54.3361 39.2636ZM32.257 22.0959L32.3352 22.2596L32.515 22.2361C33.7592 22.0732 35.3291 21.9695 37.0463 22.0731L37.5769 22.1052L37.2631 21.6761C35.9254 19.8463 33.5298 17.8845 29.5743 18.2077L28.8746 18.2649L29.4529 18.6628C31.031 19.7486 31.7856 21.109 32.257 22.0959ZM28.7966 48.8737L28.7743 48.5714L28.4817 48.6508C26.0983 49.2982 23.5527 49.3088 21.2802 48.3765L20.9938 48.7684C22.9607 51.1136 25.1972 52.7002 25.9864 53.2162L26.0659 53.2682L26.1598 53.2543C26.5888 53.1907 27.4242 52.9818 28.0353 52.2551L28.0367 52.2534C28.665 51.4928 28.9033 50.3227 28.7966 48.8737ZM40.5669 39.5535L40.6269 39.6655L40.7528 39.683C44.4322 40.1936 48.7327 40.2901 52.2637 38.9355L52.4585 38.8608L52.4199 38.6558C51.3341 32.8955 48.6391 27.8683 43.3018 25.3827L43.1819 25.3268L43.0683 25.3945C40.9162 26.6766 39.5203 28.3398 38.9456 30.3742C37.9441 33.9025 39.5759 37.7067 40.5669 39.5535Z" fill="#020202" stroke="#F5FAFF" stroke-width="0.5"/>
</svg>
