<svg width="70" height="70" viewBox="0 0 70 70" fill="none" xmlns="http://www.w3.org/2000/svg">
<path d="M56.5952 33.4773L56.536 33.1503L56.4049 33.4557C56.0778 34.2177 55.6623 34.9456 55.1627 35.6218C54.8965 35.9819 54.3887 36.0583 54.0285 35.792L53.969 35.8724L54.0285 35.7919C53.6682 35.5258 53.592 35.018 53.8582 34.6577C55.3643 32.6197 55.9715 30.0321 55.5236 27.5581C55.1119 25.2845 53.7827 23.4831 51.5642 22.1643C49.3491 20.8474 46.2474 20.0112 42.2822 19.6577C34.9528 19.0045 27.0004 20.231 23.9235 20.7881C16.7021 22.0955 11.891 29.0341 13.1984 36.2554C14.5058 43.4767 21.4443 48.2879 28.6656 46.9804C32.0869 46.361 34.5634 44.7586 37.1668 43.0742L37.1729 43.0702C40.1813 41.1238 43.2784 39.1205 48.1129 38.2453C48.3945 38.1943 48.6763 38.1295 48.951 38.0528L48.9241 37.9565L48.951 38.0528C49.3819 37.9324 49.8298 38.1843 49.9503 38.6155C50.0708 39.0469 49.8189 39.4943 49.3875 39.6148C49.0645 39.705 48.7329 39.7812 48.4018 39.8411C43.8853 40.6589 40.9152 42.5806 38.0571 44.4299L38.054 44.4319C35.289 46.221 32.6932 47.8994 28.9546 48.5763C23.4089 49.5804 18.0119 47.3673 14.688 43.272L14.5133 43.359C16.1856 50.1105 22.8619 54.5034 29.8002 53.2472C33.2215 52.6278 35.698 51.0254 38.3014 49.341L38.3075 49.337C41.3159 47.3905 44.413 45.3873 49.2475 44.512C54.2372 43.6086 57.5615 38.8145 56.6581 33.8247L56.5952 33.4773ZM42.4261 18.0421C46.3367 18.3907 49.5232 19.2192 51.902 20.4996C54.842 22.0821 56.5927 24.3594 57.1195 27.2691L58.2541 33.5358C59.3168 39.4052 55.406 45.0453 49.5365 46.108C45.0199 46.9257 42.0499 48.8474 39.1917 50.6967L39.1886 50.6988C36.4236 52.4878 33.8279 54.1663 30.0892 54.8432C21.988 56.3099 14.2038 50.9123 12.737 42.811L11.6024 36.5443C10.1357 28.4431 15.5333 20.6588 23.6345 19.192C26.7801 18.6225 34.9037 17.3716 42.4261 18.0421Z" fill="#020202" stroke="#F5FAFF" stroke-width="0.2"/>
<path d="M52.1229 36.4464L52.1229 36.4464L52.1237 36.4458C52.4883 36.186 52.9948 36.271 53.2547 36.6358C53.5123 36.9974 53.4309 37.4981 53.0743 37.7599L53.0741 37.7601C52.9708 37.8363 52.8557 37.8843 52.7375 37.9057C52.4445 37.9588 52.1335 37.848 51.9431 37.5938C51.6747 37.2353 51.7477 36.7271 52.1062 36.4586L52.1063 36.4585C52.1124 36.454 52.1185 36.4494 52.1229 36.4464Z" fill="#020202" stroke="#F5FAFF" stroke-width="0.2"/>
<path d="M22.0711 31.0155C21.6711 28.8062 23.3283 26.6331 25.7892 26.1875C28.2501 25.742 30.5639 27.1961 30.9639 29.4055C31.3639 31.6148 29.7069 33.7879 27.2459 34.2334C24.785 34.679 22.4711 33.2249 22.0711 31.0155ZM23.6671 30.7265C23.9121 32.0796 25.4011 32.919 26.9569 32.6373C28.5127 32.3557 29.6129 31.0474 29.3679 29.6943C29.1229 28.3412 27.6339 27.5018 26.0781 27.7834C24.5223 28.0651 23.4221 29.3735 23.6671 30.7265Z" fill="#020202" stroke="#F5FAFF" stroke-width="0.2"/>
</svg>
