<svg width="70" height="70" viewBox="0 0 70 70" fill="none" xmlns="http://www.w3.org/2000/svg">
<path d="M35.268 34C34.02 34 32.902 33.714 31.914 33.142C30.926 32.5527 30.1373 31.764 29.548 30.776C28.976 29.788 28.69 28.67 28.69 27.422C28.69 27.1793 28.7593 26.9887 28.898 26.85C29.054 26.694 29.2447 26.616 29.47 26.616C29.6953 26.616 29.886 26.694 30.042 26.85C30.198 26.9887 30.276 27.1793 30.276 27.422C30.276 28.358 30.4927 29.2073 30.926 29.97C31.3767 30.7153 31.9747 31.3133 32.72 31.764C33.4827 32.1973 34.332 32.414 35.268 32.414C36.2213 32.414 37.0707 32.1973 37.816 31.764C38.5613 31.3133 39.1507 30.7153 39.584 29.97C40.0347 29.2073 40.26 28.358 40.26 27.422C40.26 26.4687 40.0347 25.6193 39.584 24.874C39.1507 24.1113 38.5613 23.5133 37.816 23.08C37.0707 22.6293 36.2213 22.404 35.268 22.404H30.536C30.3107 22.404 30.12 22.3347 29.964 22.196C29.8253 22.04 29.756 21.8493 29.756 21.624V14.448C29.756 14.2227 29.8253 14.0407 29.964 13.902C30.12 13.746 30.3107 13.668 30.536 13.668H40C40.2253 13.668 40.416 13.746 40.572 13.902C40.728 14.0407 40.806 14.2227 40.806 14.448C40.806 14.6733 40.728 14.864 40.572 15.02C40.416 15.176 40.2253 15.254 40 15.254H31.316V20.844H35.268C36.516 20.844 37.634 21.13 38.622 21.702C39.61 22.274 40.39 23.0627 40.962 24.068C41.5513 25.056 41.846 26.174 41.846 27.422C41.846 28.67 41.5513 29.788 40.962 30.776C40.39 31.764 39.61 32.5527 38.622 33.142C37.634 33.714 36.516 34 35.268 34Z" fill="#020202"/>
<path d="M53.9453 38H23.4254C23.1018 38 22.8395 38.3242 22.8395 38.724C22.8395 39.1238 23.1018 39.448 23.4254 39.448H53.8281V42.2307H16.1719V39.448H21.0816C21.4052 39.448 21.6676 39.1238 21.6676 38.724C21.6676 38.3242 21.4052 38 21.0816 38H16.0547C15.4731 38 15 38.5846 15 39.3032V42.3755C15 43.0941 15.4731 43.6787 16.0547 43.6787H16.881V54.552C16.881 55.2706 17.3541 55.8552 17.9357 55.8552H19.9473C20.5288 55.8552 21.002 55.2706 21.002 54.552C21.002 54.552 21.002 49.1431 21.002 47.429C21.002 45.7149 21.002 45.981 21.002 45.981C21.002 44.533 21.002 43.6787 21.002 43.6787H48.7469C48.7469 43.6787 48.7469 44.9618 48.7469 45.981C48.7469 47.0002 48.7468 47.0006 48.7468 47.429C48.7468 47.8573 48.7468 54.6968 48.7468 54.6968C48.7468 55.4154 49.2199 56 49.8015 56H51.813C52.3945 56 52.8677 55.4154 52.8677 54.6968V43.6788H53.9453C54.5269 43.6788 55 43.0942 55 42.3756V39.3033C55 38.5846 54.5269 38 53.9453 38ZM19.8301 54.4073H18.0529V43.6788H19.8301V54.4073ZM51.6959 54.552H49.9188V43.6788H51.6959V54.552Z" fill="#020202"/>
</svg>
